<?xml version="1.0" encoding="utf-8"?>
<!-- Generator: Adobe Illustrator 19.2.1, SVG Export Plug-In . SVG Version: 6.00 Build 0)  -->
<svg version="1.1" id="_x2014_ÎÓÈ_x5F_1" xmlns="http://www.w3.org/2000/svg" xmlns:xlink="http://www.w3.org/1999/xlink"
	 x="0px" y="0px" viewBox="0 0 800 800" style="enable-background:new 0 0 800 800;" xml:space="preserve">
<style type="text/css">
	.st0{fill:#00345E;}
</style>
<g>
	<path class="st0" d="M400,100.6c-140,0-253.5,113.5-253.5,253.5S260,607.6,400,607.6s253.5-113.5,253.5-253.5S540,100.6,400,100.6z
		 M369.2,575.7c-5-0.7-10-1.6-15-2.6V402.7c0-24.9-20.3-45.2-45.2-45.2h-32.3c-4.3-14.6-17.8-25.3-33.7-25.3
		c-19.4,0-35.1,15.8-35.1,35.1c0,19.4,15.8,35.1,35.1,35.1c17.4,0,31.8-12.7,34.6-29.2H309c16.2,0,29.4,13.2,29.4,29.4v166.5
		c-93.6-26.7-162.1-112.9-162.1-215.1c0-13.2,1.2-26.2,3.4-38.8h160.1c16.2,0,29.4,13.2,29.4,29.4V575.7z M261.6,362v10.8
		c-2.4,8-9.8,13.9-18.6,13.9c-10.7,0-19.4-8.7-19.4-19.4c0-10.7,8.7-19.4,19.4-19.4C251.8,348.1,259.3,354,261.6,362z M444.9,573.3
		V424.6c0-16.2,13.2-29.4,29.4-29.4h31.4c2.8,16.6,17.3,29.2,34.6,29.2c19.4,0,35.1-15.8,35.1-35.1s-15.8-35.1-35.1-35.1
		c-15.9,0-29.4,10.7-33.7,25.3h-32.3c-24.9,0-45.2,20.3-45.2,45.2v151.4c-4.7,0.6-9.4,1.1-14.2,1.4V284.1
		c0-24.9-20.3-45.2-45.2-45.2h-32.3c-4.3-14.6-17.8-25.3-33.7-25.3c-19.4,0-35.1,15.8-35.1,35.1s15.8,35.1,35.1,35.1
		c17.4,0,31.8-12.7,34.6-29.2h31.4c16.2,0,29.4,13.2,29.4,29.4v293.7c-4.7,0-9.5-0.2-14.1-0.5V344.8c0-24.9-20.3-45.2-45.2-45.2H183
		c24.4-97.2,112.3-169.1,217-169.1c9.9,0,19.6,0.6,29.1,1.9v107c0,24.9,20.3,45.2,45.2,45.2h32.3c4.3,14.6,17.8,25.3,33.7,25.3
		c19.4,0,35.1-15.8,35.1-35.1s-15.8-35.1-35.1-35.1c-17.4,0-31.8,12.7-34.6,29.2h-31.4c-16.2,0-29.4-13.2-29.4-29.4V135
		c102,20.8,178.8,111,178.8,219.2C623.7,462.3,546.9,552.5,444.9,573.3z M521.7,394.7v-10.8c2.4-8,9.8-13.9,18.6-13.9
		c10.7,0,19.4,8.7,19.4,19.4c0,10.7-8.7,19.4-19.4,19.4C531.5,408.6,524,402.7,521.7,394.7z M322.3,243.4v10.8
		c-2.4,8-9.8,13.9-18.6,13.9c-10.7,0-19.4-8.7-19.4-19.4c0-10.7,8.7-19.4,19.4-19.4C312.5,229.5,319.9,235.4,322.3,243.4z
		 M521.7,280v-10.8c2.4-8,9.8-13.9,18.6-13.9c10.7,0,19.4,8.7,19.4,19.4c0,10.7-8.7,19.4-19.4,19.4C531.5,293.9,524,288,521.7,280z"
		/>
</g>
</svg>
