<?xml version="1.0" encoding="utf-8"?>
<!-- Generator: Adobe Illustrator 19.2.1, SVG Export Plug-In . SVG Version: 6.00 Build 0)  -->
<svg version="1.1" xmlns="http://www.w3.org/2000/svg" xmlns:xlink="http://www.w3.org/1999/xlink" x="0px" y="0px"
	 viewBox="0 0 36.3 36.3" style="enable-background:new 0 0 36.3 36.3;" xml:space="preserve">
<style type="text/css">
	.Arched_x0020_Green{fill:url(#SVGID_1_);stroke:#FFFFFF;stroke-width:0.25;stroke-miterlimit:1;}
	.st0{fill:url(#SVGID_2_);}
	.st1{fill:#00B37D;}
	.st2{fill:#58595B;}
	.st3{fill:#00B27C;}
	.st4{fill:#231F20;}
	.st5{fill:url(#SVGID_3_);}
	.st6{fill:#FFFFFF;}
	.st7{fill:#414042;}
	.st8{fill:#6D6E71;}
	.st9{fill-rule:evenodd;clip-rule:evenodd;fill:#FFFFFF;}
	.st10{fill:#36609F;}
	.st11{fill:#2CAAE1;}
	.st12{fill:#0A6C9B;}
	.st13{fill:#EF568F;}
	.st14{fill:#F04E23;}
	.st15{fill:#F58020;}
	.st16{fill:#DC5442;}
	.st17{fill:#CB2027;}
	.st18{fill:#ED338F;}
	.st19{fill:#00B9EA;}
	.st20{fill:#EE3537;}
	.st21{fill:#CA3C27;}
	.st22{fill:#428AC9;}
</style>
<linearGradient id="SVGID_1_" gradientUnits="userSpaceOnUse" x1="-1293.3334" y1="388.2813" x2="-1292.6262" y2="387.5742">
	<stop  offset="0" style="stop-color:#20AC4B"/>
	<stop  offset="0.9831" style="stop-color:#19361A"/>
</linearGradient>
<g id="From_Your_Friends_at_User10.com">
</g>
<g id="RAW_ICONS_-_SQUARE__x2F__ROUNDED__x2F__CIRCLE">
	<path class="st22" d="M18.2,2.1c-8.8,0-16,7.2-16,16c0,8.8,7.2,16,16,16c8.8,0,16-7.2,16-16C34.2,9.3,27,2.1,18.2,2.1z M24.5,14.9
		c0,0.1,0,0.3,0,0.4c0,4.3-3.3,9.3-9.3,9.3c-1.9,0-3.6-0.5-5-1.5c0.3,0,0.5,0,0.8,0c1.5,0,3-0.5,4.1-1.4c-1.4,0-2.6-1-3.1-2.3
		c0.2,0,0.4,0.1,0.6,0.1c0.3,0,0.6,0,0.9-0.1c-1.5-0.3-2.6-1.6-2.6-3.2c0,0,0,0,0,0c0.4,0.2,0.9,0.4,1.5,0.4
		c-0.9-0.6-1.5-1.6-1.5-2.7c0-0.6,0.2-1.2,0.4-1.7c1.6,2,4,3.3,6.8,3.4C18,15.4,18,15.2,18,14.9c0-1.8,1.5-3.3,3.3-3.3
		c0.9,0,1.8,0.4,2.4,1c0.7-0.1,1.5-0.4,2.1-0.8c-0.2,0.8-0.8,1.4-1.4,1.8c0.7-0.1,1.3-0.3,1.9-0.5C25.7,13.8,25.2,14.4,24.5,14.9z"
		/>
</g>
</svg>
