<?xml version="1.0" encoding="utf-8"?>
<!-- Generator: Adobe Illustrator 19.2.1, SVG Export Plug-In . SVG Version: 6.00 Build 0)  -->
<svg version="1.1" xmlns="http://www.w3.org/2000/svg" xmlns:xlink="http://www.w3.org/1999/xlink" x="0px" y="0px"
	 viewBox="0 0 37 37.5" style="enable-background:new 0 0 37 37.5;" xml:space="preserve">
<style type="text/css">
	.Arched_x0020_Green{fill:url(#SVGID_1_);stroke:#FFFFFF;stroke-width:0.25;stroke-miterlimit:1;}
	.st0{fill:url(#SVGID_2_);}
	.st1{fill:#00B37D;}
	.st2{fill:#58595B;}
	.st3{fill:#00B27C;}
	.st4{fill:#231F20;}
	.st5{fill:url(#SVGID_3_);}
	.st6{fill:#FFFFFF;}
	.st7{fill:#414042;}
	.st8{fill:#6D6E71;}
	.st9{fill-rule:evenodd;clip-rule:evenodd;fill:#FFFFFF;}
	.st10{fill:#36609F;}
	.st11{fill:#2CAAE1;}
	.st12{fill:#0A6C9B;}
	.st13{fill:#EF568F;}
	.st14{fill:#F04E23;}
	.st15{fill:#F58020;}
	.st16{fill:#DC5442;}
	.st17{fill:#CB2027;}
	.st18{fill:#ED338F;}
	.st19{fill:#00B9EA;}
	.st20{fill:#EE3537;}
	.st21{fill:#CA3C27;}
	.st22{fill:#428AC9;}
</style>
<linearGradient id="SVGID_1_" gradientUnits="userSpaceOnUse" x1="-1429.3334" y1="367.0889" x2="-1428.6262" y2="366.3818">
	<stop  offset="0" style="stop-color:#20AC4B"/>
	<stop  offset="0.9831" style="stop-color:#19361A"/>
</linearGradient>
<g id="From_Your_Friends_at_User10.com">
</g>
<g id="RAW_ICONS_-_SQUARE__x2F__ROUNDED__x2F__CIRCLE">
	<g>
		<path class="st22" d="M19.5,17.6L19.5,17.6C19.5,17.6,19.5,17.6,19.5,17.6L19.5,17.6z"/>
		<path class="st22" d="M18.5,2.8c-8.8,0-16,7.2-16,16c0,8.8,7.2,16,16,16c8.8,0,16-7.2,16-16C34.5,9.9,27.3,2.8,18.5,2.8z
			 M14.1,26.4h-3.4V16.1h3.4V26.4z M12.4,14.7L12.4,14.7c-1.2,0-1.9-0.8-1.9-1.8c0-1,0.8-1.8,1.9-1.8c1.2,0,1.9,0.8,1.9,1.8
			C14.4,13.9,13.6,14.7,12.4,14.7z M26.5,26.4h-3.4v-5.5c0-1.4-0.5-2.3-1.7-2.3c-0.9,0-1.5,0.6-1.8,1.3c-0.1,0.2-0.1,0.5-0.1,0.8
			v5.8H16c0,0,0-9.3,0-10.3h3.4v1.5c0.5-0.7,1.3-1.7,3.1-1.7c2.3,0,3.9,1.5,3.9,4.6V26.4z"/>
	</g>
</g>
</svg>
