<?xml version="1.0" encoding="utf-8"?>
<!-- Generator: Adobe Illustrator 19.2.1, SVG Export Plug-In . SVG Version: 6.00 Build 0)  -->
<svg version="1.1" xmlns="http://www.w3.org/2000/svg" xmlns:xlink="http://www.w3.org/1999/xlink" x="0px" y="0px"
	 viewBox="0 0 37.7 38.1" style="enable-background:new 0 0 37.7 38.1;" xml:space="preserve">
<style type="text/css">
	.Arched_x0020_Green{fill:url(#SVGID_1_);stroke:#FFFFFF;stroke-width:0.25;stroke-miterlimit:1;}
	.st0{fill:url(#SVGID_2_);}
	.st1{fill:#00B37D;}
	.st2{fill:#58595B;}
	.st3{fill:#00B27C;}
	.st4{fill:#231F20;}
	.st5{fill:url(#SVGID_3_);}
	.st6{fill:#FFFFFF;}
	.st7{fill:#414042;}
	.st8{fill:#6D6E71;}
	.st9{fill-rule:evenodd;clip-rule:evenodd;fill:#FFFFFF;}
	.st10{fill:#36609F;}
	.st11{fill:#2CAAE1;}
	.st12{fill:#0A6C9B;}
	.st13{fill:#EF568F;}
	.st14{fill:#F04E23;}
	.st15{fill:#F58020;}
	.st16{fill:#DC5442;}
	.st17{fill:#CB2027;}
	.st18{fill:#ED338F;}
	.st19{fill:#00B9EA;}
	.st20{fill:#EE3537;}
	.st21{fill:#CA3C27;}
	.st22{fill:#428AC9;}
</style>
<linearGradient id="SVGID_1_" gradientUnits="userSpaceOnUse" x1="-1190.2596" y1="386.1387" x2="-1189.5525" y2="385.4316">
	<stop  offset="0" style="stop-color:#20AC4B"/>
	<stop  offset="0.9831" style="stop-color:#19361A"/>
</linearGradient>
<g id="From_Your_Friends_at_User10.com">
</g>
<g id="RAW_ICONS_-_SQUARE__x2F__ROUNDED__x2F__CIRCLE">
	<path class="st22" d="M18.9,3c-8.8,0-16,7.2-16,16c0,8.8,7.2,16,16,16c8.8,0,16-7.2,16-16C34.9,10.2,27.7,3,18.9,3z M22.3,19.1
		h-2.2c0,3.6,0,8,0,8h-3.3c0,0,0-4.4,0-8h-1.6v-2.8h1.6v-1.8c0-1.3,0.6-3.4,3.4-3.4l2.5,0v2.7c0,0-1.5,0-1.8,0
		c-0.3,0-0.7,0.1-0.7,0.8v1.7h2.5L22.3,19.1z"/>
</g>
</svg>
