<?xml version="1.0" encoding="utf-8"?>
<!-- Generator: Adobe Illustrator 19.2.1, SVG Export Plug-In . SVG Version: 6.00 Build 0)  -->
<svg version="1.1" xmlns="http://www.w3.org/2000/svg" xmlns:xlink="http://www.w3.org/1999/xlink" x="0px" y="0px"
	 viewBox="0 0 37 36.5" style="enable-background:new 0 0 37 36.5;" xml:space="preserve">
<style type="text/css">
	.Arched_x0020_Green{fill:url(#SVGID_1_);stroke:#FFFFFF;stroke-width:0.25;stroke-miterlimit:1;}
	.st0{fill:url(#SVGID_2_);}
	.st1{fill:#00B37D;}
	.st2{fill:#58595B;}
	.st3{fill:#00B27C;}
	.st4{fill:#231F20;}
	.st5{fill:url(#SVGID_3_);}
	.st6{fill:#FFFFFF;}
	.st7{fill:#414042;}
	.st8{fill:#6D6E71;}
	.st9{fill-rule:evenodd;clip-rule:evenodd;fill:#FFFFFF;}
	.st10{fill:#36609F;}
	.st11{fill:#2CAAE1;}
	.st12{fill:#0A6C9B;}
	.st13{fill:#EF568F;}
	.st14{fill:#F04E23;}
	.st15{fill:#F58020;}
	.st16{fill:#DC5442;}
	.st17{fill:#CB2027;}
	.st18{fill:#ED338F;}
	.st19{fill:#00B9EA;}
	.st20{fill:#EE3537;}
	.st21{fill:#CA3C27;}
	.st22{fill:#428AC9;}
</style>
<linearGradient id="SVGID_1_" gradientUnits="userSpaceOnUse" x1="-1512.6666" y1="289.2813" x2="-1511.9596" y2="288.5742">
	<stop  offset="0" style="stop-color:#20AC4B"/>
	<stop  offset="0.9831" style="stop-color:#19361A"/>
</linearGradient>
<g id="From_Your_Friends_at_User10.com">
</g>
<g id="RAW_ICONS_-_SQUARE__x2F__ROUNDED__x2F__CIRCLE">
	<g>
		<path class="st22" d="M15.3,11c-1.3,0-2.1,1.2-1.9,2.9c0.2,1.7,1.4,2.8,2.7,2.9c1.3,0,2-1,1.8-2.7C17.6,12.4,16.5,11,15.3,11z"/>
		<path class="st22" d="M15.8,20.2c-1.9,0-3.5,1.2-3.5,2.6c0,1.4,1.4,2.6,3.3,2.6c2.7,0,3.6-1.1,3.6-2.6c0-0.2,0-0.3-0.1-0.5
			c-0.2-0.8-1-1.3-2.1-2C16.7,20.3,16.2,20.2,15.8,20.2z"/>
		<path class="st22" d="M18.5,2.2c-8.8,0-16,7.2-16,16c0,8.8,7.2,16,16,16c8.8,0,16-7.2,16-16C34.5,9.4,27.4,2.2,18.5,2.2z M19.7,14
			c0,1-0.6,1.9-1.4,2.5c-0.8,0.6-0.9,0.9-0.9,1.4c0,0.5,1,1.1,1.4,1.5c1.5,1.1,1.8,1.9,1.8,3.3c0,1.8-1.9,3.6-5,3.6
			c-2.7,0-5.1-1.1-5.1-2.9c0-1.8,1.9-3.7,4.7-3.7c0.3,0,0.6,0,0.9,0c-0.4-0.4-0.7-0.7-0.7-1.2c0-0.3,0.1-0.6,0.2-0.9
			c-0.1,0-0.3,0-0.5,0c-2.3,0-3.6-1.6-3.6-3.6c0-1.9,2-3.7,4.4-3.7c1.2,0,4.7,0,4.7,0l-1.1,1.1h-1.2C19.3,11.8,19.7,12.9,19.7,14z
			 M26.5,13.7h-2.2v2.2h-1.1v-2.2h-2.2v-1.1h2.2v-2.2h1.1v2.2h2.2V13.7z"/>
	</g>
</g>
</svg>
