<?xml version="1.0" encoding="utf-8"?>
<!-- Generator: Adobe Illustrator 19.2.1, SVG Export Plug-In . SVG Version: 6.00 Build 0)  -->
<svg version="1.1" xmlns="http://www.w3.org/2000/svg" xmlns:xlink="http://www.w3.org/1999/xlink" x="0px" y="0px"
	 viewBox="0 0 144.5 93" style="enable-background:new 0 0 144.5 93;" xml:space="preserve">
<style type="text/css">
	.st0{fill:url(#SVGID_1_);}
	.st1{fill:url(#SVGID_2_);}
	.st2{fill:url(#SVGID_3_);}
	.st3{fill:url(#SVGID_4_);}
	.st4{fill:url(#SVGID_5_);}
	.st5{fill:url(#SVGID_6_);}
	.st6{fill:url(#SVGID_7_);}
	.st7{fill:url(#SVGID_8_);}
	.st8{fill:url(#SVGID_9_);}
	.st9{fill:url(#SVGID_10_);}
	.st10{fill:url(#SVGID_11_);}
	.st11{fill:#FFFFFF;}
	.st12{fill:url(#SVGID_12_);}
	.st13{fill:url(#SVGID_13_);}
	.st14{fill:url(#SVGID_14_);}
	.st15{fill:url(#SVGID_15_);}
	.st16{fill:#214254;}
	.st17{fill:url(#SVGID_16_);}
	.st18{fill:url(#SVGID_17_);}
	.st19{fill:url(#SVGID_18_);}
	.st20{fill:url(#SVGID_19_);}
	.st21{fill:url(#SVGID_20_);}
	.st22{fill:url(#SVGID_21_);}
	.st23{fill:url(#SVGID_22_);}
	.st24{fill:url(#SVGID_23_);}
	.st25{fill:url(#SVGID_24_);}
	.st26{fill:url(#SVGID_25_);}
	.st27{fill:url(#SVGID_26_);}
	.st28{fill:#BBCE51;}
	.st29{fill:#788D91;}
	.st30{fill:url(#SVGID_27_);}
	.st31{fill:url(#SVGID_28_);}
	.st32{fill:url(#SVGID_29_);}
	.st33{fill:#BED63A;}
	.st34{fill:url(#SVGID_30_);}
	.st35{fill:url(#SVGID_31_);}
	.st36{fill:url(#SVGID_32_);}
	.st37{fill:url(#SVGID_33_);}
	.st38{fill:url(#SVGID_34_);}
	.st39{fill:url(#SVGID_35_);}
	.st40{fill:url(#SVGID_36_);}
	.st41{fill:url(#SVGID_37_);}
	.st42{fill:url(#SVGID_38_);}
	.st43{fill:url(#SVGID_39_);}
	.st44{fill:#042337;}
	.st45{fill:#5E7074;}
	.st46{fill:url(#SVGID_40_);}
	.st47{fill:url(#SVGID_41_);}
	.st48{fill:url(#SVGID_42_);}
	.st49{fill:url(#SVGID_43_);}
	.st50{fill:url(#SVGID_44_);}
	.st51{fill:#A6CE39;}
	.st52{fill:url(#SVGID_45_);}
	.st53{fill:url(#SVGID_46_);}
	.st54{fill:url(#SVGID_47_);}
	.st55{fill:url(#SVGID_48_);}
	.st56{fill:url(#SVGID_49_);}
	.st57{fill:url(#SVGID_50_);}
	.st58{fill:url(#SVGID_51_);}
	.st59{fill:url(#SVGID_52_);}
	.st60{fill:url(#SVGID_53_);}
	.st61{fill:url(#SVGID_54_);}
	.st62{fill:url(#SVGID_55_);}
	.st63{fill:url(#SVGID_56_);}
	.st64{fill:url(#SVGID_57_);}
	.st65{fill:#003562;}
	.st66{enable-background:new    ;}
	.st67{fill:#9DB5CC;}
	.st68{fill:url(#SVGID_58_);}
	.st69{fill:url(#SVGID_59_);}
	.st70{fill:url(#SVGID_60_);}
	.st71{fill:url(#SVGID_61_);}
	.st72{fill:#889DA0;}
	.st73{fill:#80BA4C;}
	.st74{fill:url(#SVGID_62_);}
	.st75{fill:url(#SVGID_63_);}
	.st76{fill:url(#SVGID_64_);}
	.st77{fill:url(#SVGID_65_);}
	.st78{fill:url(#SVGID_66_);}
	.st79{fill:url(#SVGID_67_);}
	.st80{fill:url(#SVGID_68_);}
	.st81{fill:url(#SVGID_69_);}
	.st82{fill:url(#SVGID_70_);}
	.st83{fill:url(#SVGID_71_);}
	.st84{fill:url(#SVGID_72_);}
	.st85{fill:url(#SVGID_73_);}
	.st86{fill:#021938;}
	.st87{fill:url(#SVGID_74_);}
	.st88{fill:url(#SVGID_75_);}
	.st89{fill:url(#SVGID_76_);}
	.st90{fill:url(#SVGID_77_);}
	.st91{fill:url(#SVGID_78_);}
	.st92{fill:url(#SVGID_79_);}
	.st93{fill:url(#SVGID_80_);}
	.st94{fill:url(#SVGID_81_);}
	.st95{fill:#75AA3B;}
</style>
<g id="Layer_2">
</g>
<g id="Layer_4">
	<g>
		<g>
			<g>
				<g>
					<path class="st65" d="M67.3,52.3c1.3-1.8-0.8-3.6-2.3-3.4c-0.5,0.1-0.8,0.3-1,0.5c-9.7,10-15.3,19.3-13.8,24.3
						c0.3,1.1,1,2,2,2.5c1.2,0.7,2.8,1.6,4.1,2.1c-1.2-0.5-2-1.4-2.3-2.6C52.5,70.9,57.9,61.9,67.3,52.3"/>
					<path class="st65" d="M43.9,34.9c1.3-1.9-0.1-4.1-1.3-4c-0.4,0-0.6,0.3-0.8,0.5C34,40.2,29.8,48.1,31.2,52.5
						c0.1,0.2,0.1,0.4,0.2,0.6l1.1,2.3l1.1,2c-0.2-0.3-0.3-0.6-0.4-1C31.8,51.8,36,43.8,43.9,34.9"/>
					<path class="st65" d="M76.2,34.6c1.8-1.8,0.2-4.1-1.6-4c-0.5,0-0.9,0.3-1.2,0.5c-18.7,14.8-31.3,31.1-29,38.5
						c0.3,0.9,0.8,1.7,1.5,2.2c1.1,0.8,2.6,2,3.8,2.8c-0.9-0.6-1.5-1.4-1.8-2.4C45.7,65,58,49,76.2,34.6"/>
					<path class="st65" d="M66.6,63.9c0.9-1.6-1.9-3.1-3.2-2.6c-0.2,0.1-0.4,0.2-0.5,0.4C58,68,55.6,73.4,56.6,76.8
						c0.4,1.3,1.3,2.2,2.6,2.7c1.3,0.5,3.1,1.1,4.5,1.5c-1.6-0.4-2.6-1.3-3.1-2.8C59.6,75.1,62,69.9,66.6,63.9"/>
					<path class="st65" d="M77.3,24.5c0.4-0.3,0.9-0.8,0.9-1.6c-0.6-0.8-1.2-1.6-1.8-2.4c-0.8-0.1-1-0.1-1.9,0.4
						C52.4,37,36.6,56.3,39.2,64.6c0.2,0.7,0.6,1.3,1,1.8c1,1,2.3,2.4,3.4,3.4c-0.6-0.5-1.1-1.2-1.3-2.1
						C39.8,59.6,55.4,40.4,77.3,24.5"/>
					<path class="st65" d="M56.7,31.9c1.7-2-0.1-4.2-1.6-4.1c-0.5,0-0.8,0.3-1.1,0.5C40.8,40.7,32.8,52.7,34.7,58.8
						c0.1,0.5,0.3,0.9,0.6,1.2l2,2.8l0.9,1.2c-0.4-0.5-0.6-1-0.8-1.6C35.5,56.3,43.5,44.3,56.7,31.9"/>
				</g>
			</g>
			<g class="st66">
				<g>
					<path class="st67" d="M122,36.5c0.2,1.1-0.2,2-0.3,2.3c-6.2,7.8-15.4,16.3-26.1,24C78.3,75,62.4,81.1,56.4,78.3
						c-1.2-0.6-2.9-1.5-4.1-2.1c6,3.4,22.8-2.9,41.2-15.9c11.2-7.9,20.7-16.8,26.9-24.6C121.6,34.6,121.9,35.9,122,36.5"/>
					<path class="st67" d="M125.2,31.7c0.4,1.6-0.2,3.5-1,3.1c-0.7-0.4-1.1-2.7-0.4-4C124.5,29.9,125,30.8,125.2,31.7"/>
					<path class="st67" d="M96.4,25.7c0.2,0.4,0.7,1.6-0.3,2.8c-5,4.6-10.6,9.2-16.8,13.6C57.4,57.7,37.6,64.2,33.6,57.4l-1.1-2
						l-1.1-2.3c3.4,7.3,23.2,0.9,45.2-14.7c6-4.3,11.6-8.9,16.5-13.4C95,23.7,96.4,25.7,96.4,25.7"/>
					<path class="st67" d="M102.3,19.4c1.2,1.5,0.4,3.6-1.4,3.4c-1.6-0.2-2.9-2.5-1.7-3.9C100.4,18,101.7,18.6,102.3,19.4"/>
					<path class="st67" d="M103.9,47.1c0.2,0.4,0.4,1.4-0.7,2.6c-3.5,3-7.2,5.9-11.2,8.7C73,71.9,55.6,78.3,49.7,74.5
						c-1.1-0.8-2.7-1.9-3.8-2.8c5.6,4.4,23.8-2.1,43.7-16.3c4.1-2.9,7.9-5.9,11.5-8.9C103.1,45.2,103.9,47.1,103.9,47.1"/>
					<path class="st67" d="M91.6,70c0.2,0.2,0.5,0.9-0.6,1.6C79.1,78.9,68.8,82.4,63.7,81c-1.4-0.5-3.2-1-4.5-1.5
						c5.1,2,16.3-1.7,29.4-9.7C90.6,68.8,91.5,70,91.6,70"/>
					<path class="st67" d="M97.1,66.1c0.8,1.1-1,2.8-2.6,2.5c-1.1-0.2-1.6-1.4-0.2-2.5C95.6,65.2,96.7,65.6,97.1,66.1"/>
					<path class="st67" d="M102.9,61.9c0.7,1.3-1.1,3.1-2.6,2.7c-1.1-0.3-1.3-1.7,0.1-2.8C101.5,60.9,102.5,61.2,102.9,61.9"/>
					<path class="st67" d="M92.2,48.4c0.2,0.4,0.5,1.5-0.8,2.7c-1.1,0.8-2.2,1.6-3.4,2.5C67.6,68,49,74.6,43.6,69.8
						c-1-1-2.4-2.3-3.4-3.4c5,5.5,24.2-1.2,45.2-16.1c1.2-0.8,2.3-1.7,3.4-2.5C91.1,46.3,92.2,48.4,92.2,48.4"/>
					<path class="st67" d="M97.5,43.9c1,1.7-0.7,3.9-2.6,3.4c-1.5-0.4-2-2.5-0.5-3.9C95.7,42.4,97,43.1,97.5,43.9"/>
					<path class="st67" d="M103.4,38.7c1,1.8-0.6,4-2.4,3.4c-1.4-0.5-2-2.6-0.6-3.9C101.7,37.2,102.9,37.9,103.4,38.7"/>
					<path class="st67" d="M108.7,33.6c1,1.8-0.4,4-2.1,3.4c-1.2-0.4-2-2.5-0.7-4C107.1,32,108.3,32.7,108.7,33.6"/>
					<path class="st67" d="M113.4,28.5c0.9,1.7-0.1,3.8-1.6,3.4c-1.3-0.4-2.1-2.6-0.9-4C111.8,26.9,112.9,27.7,113.4,28.5"/>
					<path class="st67" d="M107.2,25.3c0.2,0.4,0.7,1.6-0.2,2.8c-6.3,6.6-14.2,13.5-23.2,19.9C62.4,63.2,42.9,69.8,38.2,64l-0.9-1.2
						l-2-2.8c4.3,6.5,24-0.1,45.7-15.6C90,38,98,31.1,104.2,24.5C105.5,23.4,106.7,24.4,107.2,25.3"/>
					<path class="st67" d="M110.8,20.7c1.1,1.6,0.4,3.7-1.2,3.5c-1.5-0.2-2.6-2.6-1.6-4.1C109.1,19.2,110.3,19.9,110.8,20.7"/>
					<path class="st67" d="M114.1,16.5c1.1,1.6,0.6,3.6-0.8,3.3c-1.4-0.3-2.6-2.6-1.7-4C112.3,14.9,113.5,15.7,114.1,16.5"/>
					<path class="st67" d="M116.6,12.6c1,1.5,0.9,3.4-0.3,3.2c-1.3-0.2-2.7-2.6-2-4C115,11,116,11.7,116.6,12.6"/>
					<path class="st67" d="M108.9,42.4c0.8,1.7-0.7,3.8-2.3,3.3c-1.1-0.4-1.7-2.3-0.3-3.7C107.5,41,108.5,41.6,108.9,42.4"/>
					<path class="st67" d="M113.3,38c0.7,1.7-0.6,3.9-2,3.3c-1-0.4-1.6-2.4-0.4-3.8C111.9,36.5,112.9,37.2,113.3,38"/>
				</g>
			</g>
		</g>
	</g>
</g>
</svg>
