<?xml version="1.0" encoding="utf-8"?>
<!-- Generator: Adobe Illustrator 19.2.1, SVG Export Plug-In . SVG Version: 6.00 Build 0)  -->
<svg version="1.1" xmlns="http://www.w3.org/2000/svg" xmlns:xlink="http://www.w3.org/1999/xlink" x="0px" y="0px"
	 viewBox="0 0 4975 4975" style="enable-background:new 0 0 4975 4975;" xml:space="preserve">
<style type="text/css">
	.st0{fill:#D6D6D6;}
	.st1{fill:#B2B3B3;}
</style>
<g id="Layer_1">
	<g>
		<g>
			<path class="st0" d="M2860.5,1351.2c-0.4,0.1-18.4,7.8-47.7,23.2c-29.3,15.4-69.9,38.7-115.3,70.3
				c-20.5,14.2-29.2,53.6-29.2,66.8v335.3c0,69.9-19.9,122.8-59.2,157.1c-30.4,26.6-70.5,40.1-119.1,40.1
				c-48.6,0-88.7-13.5-119.1-40.1c-39.3-34.4-59.2-87.3-59.2-157.1v-335.3c0-13.2-8.7-52.6-29.2-66.8
				c-90.9-63.1-162.3-93.2-163-93.5c-35.7-14.7-52.6-55.6-37.8-91.2c14.8-35.7,55.7-52.6,91.3-37.9c3.4,1.4,85,35.5,189.2,107.8
				c70.6,49,89.2,140.2,89.2,181.6v335.3c0,30.9,6.2,47.3,11.5,52c4,3.5,13.9,5.5,27.1,5.5c13.2,0,23.1-2,27.1-5.5
				c5.3-4.6,11.5-21,11.5-52v-335.3c0-41.4,18.7-132.6,89.2-181.6c104.2-72.3,185.8-106.4,189.2-107.8c35.7-14.8,76.5,2.2,91.3,37.9
				C2913,1295.6,2896.1,1336.4,2860.5,1351.2z"/>
			<circle class="st0" cx="2489.9" cy="1167.2" r="150.9"/>
		</g>
		<g>
			<path class="st0" d="M2220.4,2071.7c-2.7,40.3-21.5,78.2-55.9,112.6c-34.4,34.4-72.2,53.2-112.6,55.9
				c-52.1,3.5-103.6-19.8-153-69.2l-112.3-112.3l-124.8-124.8c-9.4-9.4-43.3-31-67.9-26.6c-108.9,19.7-180.7,48.9-181.4,49.2
				c-35.6,14.8-76.5-2.1-91.3-37.8c-14.8-35.6,2.2-76.6,37.8-91.4c3.4-1.4,85.2-35,210-57.6c84.6-15.3,162.2,36,191.5,65.3
				l237.1,237.1c21.9,21.9,37.9,29.1,44.9,28.6c5.3-0.4,13.7-5.9,23.1-15.2s14.9-17.7,15.2-23.1c0.5-7-6.7-23-28.6-44.9
				l-237.1-237.1c-29.3-29.3-80.6-107-65.3-191.5c22.5-124.8,56.2-206.6,57.6-210c14.8-35.6,55.7-52.5,91.3-37.8
				c35.6,14.8,52.5,55.6,37.8,91.2c-0.1,0.4-7.5,18.5-17.3,50.1c-9.8,31.6-22,76.8-31.9,131.3c-4.4,24.5,17.2,58.5,26.6,67.9
				l237.1,237.1C2200.5,1968.1,2223.8,2019.6,2220.4,2071.7z"/>
			
				<ellipse transform="matrix(0.7071 -0.7071 0.7071 0.7071 -653.7349 1550.2429)" class="st0" cx="1544.4" cy="1564.3" rx="150.9" ry="150.9"/>
		</g>
		<g>
			<path class="st0" d="M2033.5,2513.6c0,48.6-13.5,88.7-40.1,119.1c-34.4,39.3-87.3,59.2-157.1,59.2H1501
				c-13.2,0-52.6,8.7-66.8,29.2c-63.1,90.9-93.2,162.3-93.5,163.1c-14.7,35.7-55.6,52.6-91.2,37.8c-35.7-14.8-52.6-55.7-37.9-91.3
				c1.4-3.4,35.5-85,107.8-189.2c49-70.6,140.2-89.2,181.6-89.2h335.3c30.9,0,47.3-6.2,52-11.5c3.5-4,5.5-13.9,5.5-27.1
				c0-13.2-2-23.1-5.5-27.1c-4.6-5.3-21-11.5-52-11.5H1501c-41.4,0-132.6-18.7-181.6-89.2c-72.3-104.2-106.4-185.8-107.8-189.2
				c-14.8-35.7,2.2-76.5,37.9-91.3c35.6-14.7,76.4,2.2,91.2,37.8c0.1,0.4,7.8,18.4,23.2,47.7c15.4,29.3,38.7,69.9,70.3,115.4
				c14.2,20.5,53.6,29.2,66.8,29.2h335.3c69.9,0,122.8,19.9,157.1,59.2C2020,2424.9,2033.5,2465,2033.5,2513.6z"/>
			<circle class="st0" cx="1156.7" cy="2513.6" r="150.9"/>
		</g>
		<g>
			<path class="st0" d="M2160.4,3104.6l-237.1,237.1c-9.4,9.4-31,43.3-26.6,67.9c19.7,108.9,48.9,180.7,49.2,181.4
				c14.8,35.6-2.1,76.5-37.8,91.3c-35.6,14.8-76.6-2.2-91.4-37.8c-1.4-3.4-35-85.2-57.6-210c-15.3-84.6,36-162.3,65.3-191.5
				l118.3-118.3l118.8-118.8c21.9-21.9,29.1-37.8,28.6-44.9c-0.4-5.3-5.9-13.8-15.2-23.1c-9.3-9.3-17.7-14.9-23.1-15.2
				c-7-0.5-23,6.7-44.9,28.6l-119.9,119.9l-117.2,117.2c-29.3,29.3-107,80.6-191.5,65.3c-124.8-22.5-206.6-56.2-210-57.6
				c-35.6-14.8-52.5-55.7-37.8-91.3c14.8-35.6,55.6-52.5,91.2-37.8c0.4,0.1,18.5,7.5,50.1,17.3c31.6,9.8,76.8,22,131.3,31.9
				c24.5,4.4,58.5-17.2,67.9-26.6l128.1-128.1l109-109c49.4-49.4,100.9-72.7,153-69.2c40.3,2.7,78.2,21.5,112.6,55.9
				c34.4,34.4,53.2,72.2,55.9,112.6C2233.1,3003.7,2209.9,3055.2,2160.4,3104.6z"/>
			
				<ellipse transform="matrix(0.7071 -0.7071 0.7071 0.7071 -1990.8352 2111.802)" class="st0" cx="1553.8" cy="3459.1" rx="150.9" ry="150.9"/>
		</g>
		<g>
			<path class="st0" d="M2911.5,3754.1c-14.8,35.7-55.7,52.6-91.3,37.8c-3.4-1.4-85-35.5-189.2-107.8
				c-70.6-49-89.2-140.2-89.2-181.6v-335.3c0-30.9-6.2-47.3-11.5-52c-4-3.5-13.9-5.5-27.1-5.5c-13.2,0-23.1,2-27.1,5.5
				c-5.3,4.6-11.5,21-11.5,52v335.3c0,41.4-18.7,132.6-89.2,181.6c-104.2,72.3-185.8,106.4-189.2,107.8
				c-35.7,14.8-76.5-2.2-91.3-37.9c-14.7-35.6,2.2-76.4,37.8-91.2c0.4-0.2,18.4-7.8,47.7-23.2c29.3-15.5,69.9-38.7,115.3-70.3
				c20.5-14.2,29.2-53.5,29.2-66.8v-335.3c0-69.9,19.9-122.8,59.2-157.1c30.4-26.6,70.5-40.1,119.1-40.1
				c48.6,0,88.7,13.5,119.1,40.1c39.3,34.4,59.2,87.3,59.2,157.1v335.3c0,13.2,8.7,52.6,29.2,66.8c90.9,63.1,162.3,93.2,163.1,93.5
				C2909.3,3677.6,2926.2,3718.4,2911.5,3754.1z"/>
			<circle class="st0" cx="2503.1" cy="3846.8" r="150.9"/>
		</g>
		<g>
			<path class="st0" d="M3633.9,3186.7c-3.4,1.4-85.2,35-210,57.6c-84.6,15.3-162.3-36-191.5-65.3l-126.9-126.9l-110.2-110.2
				c-21.9-21.9-37.8-29.1-44.9-28.6c-5.3,0.3-13.8,5.9-23.1,15.2c-9.3,9.3-14.9,17.7-15.2,23.1c-0.5,7,6.7,23,28.6,44.9l237.1,237.1
				c29.3,29.3,80.6,107,65.3,191.5c-22.5,124.8-56.2,206.6-57.6,210c-14.8,35.6-55.7,52.5-91.3,37.8c-35.6-14.8-52.5-55.6-37.8-91.2
				c0.1-0.4,7.5-18.5,17.3-50.1c9.8-31.6,22-76.8,31.9-131.3c4.4-24.5-17.2-58.5-26.6-67.9L2940.6,3194l-98.7-98.7
				c-49.4-49.4-72.7-100.9-69.2-153c2.7-40.3,21.5-78.2,55.9-112.6c34.4-34.4,72.2-53.2,112.6-55.9c52.1-3.5,103.6,19.8,153,69.2
				l96.1,96.1l141,141c9.4,9.4,43.3,31,67.9,26.6c108.9-19.7,180.7-48.9,181.4-49.2c35.6-14.8,76.5,2.1,91.3,37.8
				C3686.5,3131,3669.6,3171.9,3633.9,3186.7z"/>
			
				<ellipse transform="matrix(0.7071 -0.7071 0.7071 0.7071 -1429.2821 3448.9124)" class="st0" cx="3448.6" cy="3449.7" rx="150.9" ry="150.9"/>
		</g>
		<g>
			<path class="st0" d="M3781.4,2817.5c14.8,35.7-2.2,76.5-37.9,91.3c-35.6,14.7-76.4-2.2-91.2-37.8c-0.2-0.4-7.8-18.4-23.2-47.7
				c-15.5-29.3-38.7-69.9-70.3-115.3c-14.2-20.5-53.5-29.2-66.8-29.2h-335.3c-69.9,0-122.8-19.9-157.2-59.2
				c-26.6-30.4-40.1-70.5-40.1-119.1c0-48.6,13.5-88.7,40.1-119.1c34.4-39.3,87.3-59.2,157.2-59.2H3492c13.2,0,52.6-8.7,66.8-29.2
				c63.1-90.9,93.2-162.3,93.5-163c14.7-35.7,55.6-52.6,91.2-37.8c35.7,14.8,52.6,55.7,37.8,91.3c-1.4,3.4-35.5,85-107.8,189.2
				c-49,70.6-140.2,89.2-181.6,89.2h-335.3c-30.9,0-47.3,6.2-52,11.5c-3.5,4-5.5,13.9-5.5,27.1c0,13.2,2,23.1,5.5,27.1
				c4.6,5.3,21,11.5,52,11.5H3492c41.4,0,132.6,18.7,181.6,89.2C3745.9,2732.4,3780,2814.1,3781.4,2817.5z"/>
			<circle class="st0" cx="3836.3" cy="2500.4" r="150.9"/>
		</g>
		<g>
			<path class="st0" d="M3662.4,1909.3c-14.8,35.6-55.6,52.5-91.2,37.8c-0.4-0.1-18.5-7.5-50.1-17.3c-31.6-9.8-76.8-22-131.3-31.9
				c-24.5-4.4-58.5,17.2-67.9,26.6l-133.8,133.7l-103.4,103.4c-49.4,49.4-100.9,72.7-153,69.2c-40.3-2.7-78.2-21.5-112.6-55.9
				c-34.4-34.4-53.2-72.2-55.9-112.6c-3.5-52.1,19.8-103.6,69.2-153l104.8-104.8l132.4-132.4c9.4-9.4,31-43.3,26.6-67.9
				c-19.7-108.9-48.9-180.7-49.2-181.4c-14.8-35.6,2.1-76.5,37.8-91.3c35.6-14.8,76.5,2.2,91.3,37.8c1.4,3.4,35,85.2,57.6,210
				c15.3,84.6-36,162.2-65.3,191.5L3048.6,1891l-117.2,117.2c-21.9,21.9-29.1,37.9-28.6,44.9c0.3,5.3,5.9,13.7,15.2,23.1
				c9.3,9.3,17.7,14.9,23.1,15.2c7,0.5,23-6.7,44.9-28.6l116.9-116.9l120.2-120.2c29.3-29.3,107-80.6,191.5-65.3
				c124.8,22.5,206.6,56.2,210,57.6C3660.3,1832.8,3677.2,1873.6,3662.4,1909.3z"/>
			
				<ellipse transform="matrix(0.7071 -0.7071 0.7071 0.7071 -92.1823 2887.3472)" class="st0" cx="3439.2" cy="1554.9" rx="150.9" ry="150.9"/>
		</g>
		<path class="st1" d="M1836.3,2691.9h-154.9c-10.7-45.3-17.7-92-20.7-139.8c-1.1-17.1-1.6-34.4-1.6-51.8c0-8.5,0.1-17,0.4-25.4
			c1.4-47.7,6.9-94.4,16.1-139.7h160.7c69.9,0,122.8,19.9,157.1,59.2c26.6,30.4,40.1,70.5,40.1,119.1c0,48.6-13.5,88.7-40.1,119.1
			C1959.1,2672,1906.2,2691.9,1836.3,2691.9z"/>
		<path class="st1" d="M1898.9,2170.9l-112.3-112.3c25.2-39.9,53.7-77.5,85.2-112.4c17.2-19.1,35.3-37.5,54.3-54.9
			c34.5-31.8,71.7-60.7,111.2-86.4l113.8,113.8c49.4,49.4,72.7,100.9,69.2,153c-2.7,40.3-21.5,78.2-55.9,112.6
			c-34.4,34.4-72.2,53.2-112.6,55.9C1999.8,2243.6,1948.3,2220.4,1898.9,2170.9z"/>
		<path class="st1" d="M2229.7,2951.6c3.5,52.1-19.8,103.6-69.2,153l-103.6,103.6c-40.4-24.6-78.5-52.6-114-83.6
			c-19.4-16.9-38-34.8-55.8-53.4c-32.3-34-61.7-70.7-87.9-109.7l109-109c49.4-49.4,100.9-72.7,153-69.2
			c40.3,2.7,78.2,21.5,112.6,55.9C2208.2,2873.4,2227,2911.3,2229.7,2951.6z"/>
		<path class="st1" d="M2311.6,1846.8v-156.1c45.3-9.8,92-15.9,139.8-17.9c12-0.5,24.1-0.8,36.2-0.8c13.8,0,27.4,0.3,41,1
			c47.8,2.3,94.5,8.7,139.8,18.8v155c0,69.9-19.9,122.8-59.2,157.1c-30.4,26.6-70.5,40.1-119.1,40.1c-48.6,0-88.7-13.5-119.1-40.1
			C2331.5,1969.6,2311.6,1916.7,2311.6,1846.8z"/>
		<path class="st1" d="M2681.4,3167.2v138.7c-45.2,10.9-91.9,18-139.8,21.1c-17.9,1.2-36,1.8-54.2,1.8c-7.7,0-15.4-0.1-23-0.3
			c-47.7-1.3-94.4-6.6-139.7-15.7v-145.6c0-69.9,19.9-122.8,59.2-157.1c30.4-26.6,70.5-40.1,119.1-40.1c48.6,0,88.7,13.5,119.1,40.1
			C2661.5,3044.4,2681.4,3097.3,2681.4,3167.2z"/>
		<path class="st1" d="M2819.2,2175c-34.4-34.4-53.2-72.2-55.9-112.6c-3.5-52.1,19.8-103.6,69.2-153l104.8-104.8
			c39.5,25.6,76.8,54.5,111.3,86.3c18.9,17.4,37.1,35.8,54.3,54.9c31.5,34.9,60,72.5,85.2,112.4l-103.4,103.4
			c-49.4,49.4-100.9,72.7-153,69.2C2891.5,2228.2,2853.6,2209.4,2819.2,2175z"/>
		<path class="st1" d="M3094.1,2843.1l96.1,96.1c-25.1,40-53.4,77.8-84.8,112.9c-17.2,19.2-35.2,37.6-54,55.1
			c-34.4,31.9-71.4,61-110.8,86.8l-98.7-98.7c-49.4-49.4-72.7-100.9-69.2-153c2.7-40.3,21.5-78.2,55.9-112.6
			c34.4-34.4,72.2-53.2,112.6-55.9C2993.2,2770.4,3044.7,2793.7,3094.1,2843.1z"/>
		<path class="st1" d="M3315.9,2500.4c0,13-0.3,25.8-0.9,38.6c-2.2,47.8-8.4,94.4-18.4,139.8h-139.9c-69.9,0-122.8-19.9-157.2-59.2
			c-26.6-30.4-40.1-70.5-40.1-119.1c0-48.6,13.5-88.7,40.1-119.1c34.4-39.3,87.3-59.2,157.2-59.2h140c9.9,45.3,16.2,92,18.3,139.8
			C3315.6,2474.6,3315.9,2487.5,3315.9,2500.4z"/>
	</g>
</g>
<g id="Isolation_Mode">
</g>
</svg>
