<?xml version="1.0" encoding="utf-8"?>
<!-- Generator: Adobe Illustrator 19.2.1, SVG Export Plug-In . SVG Version: 6.00 Build 0)  -->
<svg version="1.1" id="_x2014_ÎÓÈ_x5F_1" xmlns="http://www.w3.org/2000/svg" xmlns:xlink="http://www.w3.org/1999/xlink"
	 x="0px" y="0px" viewBox="0 0 487.5 403.5" style="enable-background:new 0 0 487.5 403.5;" xml:space="preserve">
<style type="text/css">
	.st0{fill:#D0D0D0;}
</style>
<g>
	<g>
		<g>
			<g>
				<path class="st0" d="M112.6,303.2c0-9.1,2.5-17.7,6.7-25c-13.1-4-22.6-13.4-22.6-24.2v-56.6H51.4v56.6c0,34.6,28.3,63.6,65.7,70
					C114.3,317.6,112.6,310.6,112.6,303.2z"/>
				<path class="st0" d="M228.8,197.3v56.6c0,10.7-9.5,20.2-22.6,24.2c4.3,7.4,6.7,15.9,6.7,25c0,7.4-1.6,14.5-4.5,20.8
					c37.4-6.5,65.7-35.4,65.7-70v-56.6H228.8z"/>
			</g>
			<circle class="st0" cx="162.7" cy="302.7" r="44.6"/>
		</g>
	</g>
	<g>
		<g>
			<g>
				<path class="st0" d="M390.1,86.4c0,9.1-2.5,17.7-6.7,25c13.1,4,22.6,13.4,22.6,24.2v56.6h45.2v-56.6c0-34.6-28.3-63.6-65.7-70
					C388.5,71.9,390.1,79,390.1,86.4z"/>
				<path class="st0" d="M273.9,192.2v-56.6c0-10.7,9.5-20.2,22.6-24.2c-4.3-7.4-6.7-15.9-6.7-25c0-7.4,1.6-14.5,4.5-20.8
					c-37.4,6.5-65.7,35.4-65.7,70v56.6H273.9z"/>
			</g>
			<circle class="st0" cx="340" cy="86.8" r="44.6"/>
		</g>
	</g>
</g>
</svg>
