<?xml version="1.0" encoding="utf-8"?>
<!-- Generator: Adobe Illustrator 19.2.1, SVG Export Plug-In . SVG Version: 6.00 Build 0)  -->
<svg version="1.1" id="Layer_1" xmlns="http://www.w3.org/2000/svg" xmlns:xlink="http://www.w3.org/1999/xlink" x="0px" y="0px"
	 viewBox="0 0 1053.7 695.6" style="enable-background:new 0 0 1053.7 695.6;" xml:space="preserve">
<style type="text/css">
	.st0{fill-rule:evenodd;clip-rule:evenodd;}
	.st1{fill:#FFFFFF;}
	.st2{fill-rule:evenodd;clip-rule:evenodd;fill:#FFFFFF;}
	.st3{fill:#D0D0D0;}
	.st4{fill-rule:evenodd;clip-rule:evenodd;fill:#D0D0D0;}
</style>
<g>
	<g>
		<g>
			<path class="st3" d="M492.6,501.1c-14.1-17.7-25.6-38.6-33.8-61.8h56v64.3C507.2,503.3,499.8,502.5,492.6,501.1z"/>
			<path class="st3" d="M373.6,362.4h60.6c0.5,23.2,3.9,45.4,9.8,66.2h-51.9C381.1,408.8,374.5,386.4,373.6,362.4z"/>
			<path class="st3" d="M526,274.1v-64.2c6.2,0.3,12.2,0.9,18.2,1.8c14.3,17.8,26,38.9,34.3,62.3H526z"/>
			<path class="st3" d="M582,284.9c6.2,20.7,9.8,43,10.3,66.3H526v-66.3H582z"/>
			<path class="st3" d="M514.8,274.1h-56c8.2-23.1,19.7-44,33.8-61.6c7.2-1.4,14.7-2.2,22.2-2.6V274.1z"/>
			<path class="st3" d="M514.8,284.9v66.3H445c0.5-23.3,4.1-45.6,10.3-66.3H514.8z"/>
			<path class="st3" d="M434.2,351.2h-60.6c0.9-24,7.6-46.6,18.6-66.3h51.9C438.1,305.7,434.7,328,434.2,351.2z"/>
			<path class="st3" d="M445,362.4h69.8v66.2h-59.6C449.1,407.9,445.5,385.6,445,362.4z"/>
			<path class="st3" d="M526,439.3h52.5c-8.3,23.5-20,44.7-34.3,62.5c-6,1-12,1.6-18.2,1.8V439.3z"/>
			<path class="st3" d="M526,428.5v-66.2h66.3c-0.5,23.2-4.1,45.5-10.2,66.2H526z"/>
			<path class="st3" d="M603.1,362.4h64.2c-0.9,24.3-7.7,47-19,66.9v-0.7h-55C599.2,407.7,602.6,385.5,603.1,362.4z"/>
			<path class="st3" d="M603.1,351.2c-0.5-23.2-3.9-45.5-9.9-66.3h55.4c11.1,19.7,17.8,42.3,18.7,66.3H603.1z"/>
			<path class="st3" d="M641.9,274.1h-52c-7.3-21.6-17.3-41.3-29.6-58.8c24.5,6.9,46.5,20,64,37.5
				C630.8,259.4,636.7,266.5,641.9,274.1z"/>
			<path class="st3" d="M416.5,252.9c16.5-16.5,36.8-29.1,59.6-36.2c-11.9,17.1-21.6,36.5-28.7,57.5h-48.5
				C404.1,266.5,410,259.4,416.5,252.9z"/>
			<path class="st3" d="M398.8,439.3h48.6c7.1,21.1,16.8,40.5,28.7,57.6c-22.8-7.2-43.1-19.7-59.6-36.3
				C409.9,454.2,404,447,398.8,439.3z"/>
			<path class="st3" d="M624.3,460.7c-17.6,17.6-39.5,30.6-64,37.5c12.3-17.5,22.3-37.3,29.6-58.9H642
				C636.8,447,630.9,454.2,624.3,460.7z"/>
		</g>
		<g>
			<g>
				<path class="st4" d="M814.3,556.5c2.4-5,4.9-10,7.3-14.9c1.7-3.6,6.2-12.6,9.9-20.2c1.7-3.8,3.7-8.3,5.7-12.9
					c-1.7-4.2-3.5-8.5-5.2-12.7c-4.6-3.6-9.7-7.4-12.7-9.2c-2.7-1.6-4.5-2.8-5.5-3.5c-15.6-6.8-31.5-12.9-47.8-17.8
					c-5.5,3.1-11.1,6.3-16.6,9.3c-6.8,3.8-13.6,7.3-20.4,10.7c-36.5,31.6-64.5,73.1-120.5,75.9c-62.8,3.1-144.7-47.7-205.2-65.2
					c-50-14.5-30.3,13-47.2,20.2c0,0-6.3,22.6,75.1,63.6c92.2,43.4,148.6,74.5,246.7,44.8C712.6,614,765.7,579.9,814.3,556.5z"/>
				<path class="st1" d="M604.9,640.6C604.9,640.6,604.9,640.6,604.9,640.6c-55.5,0-102.1-22.1-161.1-50l-14.7-7
					c-80.6-40.6-78.7-64.5-77.5-68.8l0.6-2.1l2-0.8c3.7-1.6,4.7-4.4,6.2-9.2c2-6.5,4.8-15.5,20-15.5c6.1,0,13.9,1.4,24,4.3
					c21.2,6.1,44.6,16.1,69.3,26.7c46.4,19.8,94.5,40.3,134.4,38.4c42.2-2.1,67.7-26.9,94.7-53.2c7.4-7.2,15.1-14.7,23.1-21.6
					l0.9-0.6c7.8-3.9,14.2-7.2,20.3-10.6c5.5-3.1,11.1-6.2,16.6-9.3l1.7-0.9l1.8,0.5c15.2,4.6,31,10.5,48.3,18l0.8,0.4
					c1,0.7,2.7,1.8,5.3,3.3c3.2,1.9,8.5,5.9,13.2,9.5l0.9,0.7l0.5,1.1c1.8,4.2,3.5,8.5,5.2,12.8l0.7,1.7l-0.7,1.7
					c-2,4.6-4,9.1-5.7,13c-3.8,7.7-8.2,16.8-9.9,20.3l-8,16.2l-1.4,0.8c-18.2,8.8-37,19-55.3,29c-30.7,16.7-59.7,32.6-81.9,39.3
					C652.6,636.8,628.4,640.6,604.9,640.6z M360.4,518.7c1.1,5.4,9.6,25.2,72.6,56.9l14.6,6.9c60.3,28.5,103.8,49.1,157.2,49.1
					c0,0,0,0,0,0c22.5,0,45.9-3.8,71.5-11.5c21.3-6.4,49.9-22,80.2-38.6c17.9-9.8,36.4-19.8,54.3-28.5l6.7-13.5
					c1.7-3.5,6.2-12.6,9.9-20.2c1.5-3.2,3.2-7.1,4.9-11c-1.3-3.3-2.7-6.6-4.1-9.9c-4-3.1-8.7-6.6-11.3-8.2c-2.6-1.5-4.3-2.6-5.4-3.4
					c-16.1-7-30.9-12.6-45.1-16.9c-5,2.8-10,5.6-15,8.4c-6,3.4-12.4,6.7-20.1,10.5c-7.7,6.7-15.1,13.9-22.3,20.9
					c-27,26.3-54.9,53.5-100.5,55.7c-41.9,2.1-91.1-18.9-138.4-39.1c-24.5-10.5-47.6-20.3-68.3-26.3c-9.1-2.6-16.4-4-21.5-4
					c-8.6,0-9.5,3.1-11.4,9.2C367.6,509.9,365.9,515.2,360.4,518.7z"/>
			</g>
			<g>
				<path class="st4" d="M754.4,591.6c2.8-4.8,5.6-9.6,8.4-14.3c2-3.4,7.1-12.1,11.3-19.4c2-3.7,4.3-8,6.6-12.4
					c-1.4-4.4-2.8-8.7-4.3-13.1c-4.3-3.9-9.2-8.1-12-10.1c-2.6-1.8-4.3-3.1-5.3-3.9c-15-7.9-30.5-15.2-46.4-21.3
					c-5.7,2.7-11.5,5.4-17.2,8.1c-7,3.3-14.1,6.3-21.2,9.2c-38.8,28.9-69.6,68.2-125.7,66.9c-62.8-1.5-140.8-58.1-199.9-80
					c-48.8-18.1-31.2,10.7-48.5,16.7c0,0-7.9,22.1,70.2,68.9c88.8,50,142.8,85.1,242.8,62.7C648.8,641.5,704.2,611.4,754.4,591.6z"
					/>
				<path class="st1" d="M555.3,660.8C555.2,660.8,555.2,660.8,555.3,660.8c-63,0-109.1-26.1-172.9-62.2l-14.1-8
					c-77.4-46.4-73.7-70-72.2-74.3l0.7-2l2-0.7c3.8-1.3,5-4,6.8-8.7c2.3-6,5.5-14.1,18.5-14.1c6.4,0,15,2,26.2,6.2
					c20.7,7.7,43.3,19.3,67.2,31.7c44.9,23.2,91.2,47.1,131.3,48.1l2.7,0c40.7,0,67.4-22.4,95.7-46.2c7.9-6.6,16.1-13.5,24.6-19.8
					l1-0.5c8.2-3.3,14.9-6.2,21-9.1c5.8-2.7,11.5-5.4,17.2-8.1l1.7-0.8l1.8,0.7c14.8,5.7,30.2,12.7,46.8,21.5l0.8,0.5
					c0.9,0.8,2.5,1.9,5,3.7c2.5,1.8,6.6,5.2,12.4,10.5l0.9,0.8l0.4,1.1c1.5,4.4,2.9,8.7,4.3,13.1l0.6,1.8l-0.9,1.7
					c-2.3,4.4-4.6,8.8-6.7,12.5l-20.6,35.2l-1.4,0.6c-18.7,7.4-38.3,16.3-57.2,24.8c-31.9,14.5-62,28.1-84.6,33.2
					C593.1,658.5,573.9,660.8,555.3,660.8z M304.5,520.8c0.7,5.4,7.7,25.8,68.2,62.1l14,7.9c62.6,35.5,107.9,61.1,168.5,61.1
					c0,0,0,0,0,0c17.9,0,36.6-2.2,57-6.8c21.8-4.9,51.5-18.3,82.9-32.6c18.5-8.4,37.7-17.1,56.1-24.5l18.9-32.4
					c1.7-3.1,3.7-6.8,5.7-10.6c-1.1-3.4-2.2-6.8-3.3-10.1c-5-4.5-8.6-7.5-10.7-9c-2.4-1.7-4.1-2.9-5.2-3.8
					c-15.5-8.2-29.9-14.8-43.7-20.2c-5.2,2.5-10.3,4.9-15.5,7.3c-6.1,2.8-12.8,5.7-20.8,9c-8.1,6.1-16,12.7-23.7,19.2
					c-28.2,23.7-57.4,48.3-101.4,48.3c0,0,0,0,0,0c-1,0-1.9,0-2.9,0c-42.1-1-89.4-25.4-135.2-49.1c-23.6-12.2-46-23.8-66.2-31.2
					c-10-3.7-17.8-5.6-23.1-5.6c-6.9,0-8,2.8-10.2,8.4C312.2,512.4,310.1,517.7,304.5,520.8z"/>
			</g>
			<g>
				<path class="st4" d="M1047.9,528.2c0,0-234.3-140.4-270.1-131.9c0,0-29.1-17.1-156,53.6c0,0-3.5,23.6-166.6,45.2
					c0,0-36.8,16.9,13.2,38.5c0,0,9.7,45.1,207.1-28.5c-61.4,22.9-91.6,90.9-165,89.2c-62.8-1.5-140.8-58.1-199.9-80
					c-48.8-18.1-31.2,10.7-48.5,16.7c0,0-7.9,22.1,70.2,68.9c88.8,50,142.8,85.1,242.8,62.8c57.4-12.9,166.8-83.5,221.8-75.2
					c0,0,94,14.2,170.2,100.4L1047.9,528.2z"/>
				<path class="st1" d="M968.1,695.6l-4.4-4.9c-74.4-84.2-166.5-98.8-167.5-98.9c-2.8-0.4-5.8-0.6-9-0.6
					c-32.9,0-82.8,22.6-126.7,42.6c-31.8,14.5-61.9,28.1-84.5,33.2c-21,4.7-40.3,7-59,7c-63,0-109.1-26.1-172.9-62.2l-14.1-8
					c-77.4-46.4-73.7-70-72.2-74.3l0.7-2l2-0.7c3.8-1.3,5-4,6.8-8.7c2.3-5.9,5.5-14.1,18.5-14.1c6.4,0,15,2,26.2,6.2
					c20.7,7.7,43.3,19.3,67.2,31.7c44.8,23.2,91.2,47.1,131.3,48.1l2.7,0c40.7,0,67.4-22.4,95.6-46.2c7.4-6.2,14.9-12.5,22.7-18.4
					c-53.4,17.6-95.3,26.5-124.7,26.5c-30.5,0-39.4-9.9-41.9-14.7c-18.3-8.1-27.2-16.7-27.3-26.3c-0.2-12,14-18.9,15.6-19.6l1.3-0.4
					C599.8,471.4,616,451,617.4,448.7l0.2-1.7l1.9-1.1c83-46.3,125.5-56,146.5-56c6.3,0,10.2,0.9,12.2,1.7c1-0.1,2-0.2,3.1-0.2
					c46.4,0,259.7,127.5,268.8,132.9l3.6,2.1L968.1,695.6z M797.6,582.9c0.5,0,91.8,13.6,168.4,97l76-150
					c-77.1-46-226-129.5-260.6-129.5c-1,0-1.9,0.1-2.6,0.2L777,401l-1.5-0.9l0,0c-0.1,0-30.6-13.6-150.3,53
					c-4.8,7.8-30.9,28-168.7,46.3c-3.1,1.6-10,6.2-9.9,11.2c0,2.6,2.4,9.8,23.6,18.9l2.1,0.9l0.5,2.2l0,0c0,0,3.8,10.1,34.1,10.1
					c36.3,0,92.5-14.1,167.1-41.9l3.1,8.4c0,0,0,0-0.1,0c-23.9,8.9-43.5,25.4-62.4,41.2c-28.8,24.2-58.6,49.1-104.3,48.2
					c-42.1-1-89.4-25.4-135.2-49.1c-23.7-12.2-46-23.8-66.2-31.2c-10.1-3.7-17.8-5.6-23.1-5.6c-6.9,0-8,2.8-10.2,8.4
					c-1.7,4.3-3.8,9.6-9.4,12.7c0.7,5.4,7.7,25.8,68.2,62.1l14,7.9c62.6,35.5,107.9,61.1,168.5,61.1c18,0,36.6-2.2,57-6.8
					c21.7-4.9,51.4-18.3,82.8-32.6c47-21.3,95.5-43.4,130.4-43.4C790.9,582.2,794.4,582.5,797.6,582.9
					C797.6,582.9,797.6,582.9,797.6,582.9z"/>
			</g>
		</g>
		<g>
			<g>
				<path class="st4" d="M239.7,140.5c-2.5,5-5,9.9-7.5,14.9c-1.8,3.5-6.3,12.5-10.1,20.1c-1.8,3.8-3.8,8.3-5.8,12.8
					c1.7,4.3,3.4,8.5,5.1,12.8c4.6,3.6,9.7,7.5,12.6,9.3c2.7,1.7,4.4,2.8,5.5,3.5c15.5,6.9,31.4,13.2,47.6,18.3
					c5.5-3.1,11.1-6.1,16.7-9.2c6.8-3.7,13.7-7.2,20.5-10.5c36.8-31.3,65.1-72.5,121.2-74.8c62.8-2.5,144.2,49,204.6,67
					c49.9,14.9,30.4-12.7,47.4-19.7c0,0,6.5-22.6-74.5-64.3c-91.8-44.2-147.9-75.8-246.3-47C341.9,83.9,288.5,117.5,239.7,140.5z"/>
				<path class="st1" d="M287.8,237.1l-1.8-0.6c-15-4.6-30.8-10.7-48.2-18.4l-0.8-0.5c-1-0.7-2.6-1.8-5.2-3.4
					c-3.2-1.9-8.1-5.8-13.1-9.6l-0.9-0.7l-0.4-1.1c-1.7-4.1-3.4-8.3-5-12.5l-0.7-1.7l0.6-2c2-4.5,4.1-9.1,5.8-12.9
					c3.8-7.7,8.3-16.7,10.1-20.2l8.2-16.2l1.4-0.7c18.2-8.6,37.2-18.7,55.5-28.5c30.8-16.5,60-32,82.2-38.5
					c25.8-7.5,49.5-11.2,72.4-11.2c56.3,0,103.2,22.7,162.5,51.4l14.7,7.1c80.3,41.3,78.1,65.2,76.9,69.5l-0.6,2.1l-2,0.8
					c-3.7,1.5-4.7,4.3-6.3,9.1c-2.1,6.5-4.9,15.3-19.8,15.3c-6.1,0-14.1-1.5-24.3-4.5c-21.1-6.3-44.4-16.5-69.1-27.3
					c-46.2-20.2-94-41-134.1-39.5c-42.2,1.7-68,26.3-95.2,52.3c-7.5,7.1-15.2,14.5-23.3,21.4l-0.9,0.6c-7.6,3.7-14.3,7.1-20.3,10.4
					c-5.6,3-11.1,6.1-16.7,9.2L287.8,237.1z M241.8,210.1c16.2,7.2,30.9,12.9,44.9,17.3c5-2.8,10-5.5,15-8.3
					c6.1-3.3,12.7-6.7,20.2-10.4c7.7-6.6,15.2-13.7,22.4-20.7c27.2-26,55.4-53,101-54.8c42.1-1.8,90.9,19.7,138,40.3
					c24.4,10.7,47.4,20.8,68,26.9c9.3,2.8,16.6,4.2,21.8,4.2c8.3,0,9.3-3,11.3-9.1c1.4-4.4,3.1-9.8,8.6-13.2
					c-1.1-5.4-9.3-25.3-72.1-57.6l-14.6-7.1c-60.6-29.3-104.3-50.5-158.6-50.5c-22,0-44.8,3.6-69.8,10.9
					c-21.4,6.2-50.1,21.6-80.5,37.8c-18,9.6-36.5,19.5-54.5,28.1l-6.8,13.5c-1.8,3.5-6.3,12.5-10,20.1c-1.5,3.2-3.2,7-5,10.9
					c1.4,3.4,2.7,6.7,4,9.9c4.2,3.3,8.7,6.7,11.3,8.3C239,208.2,240.7,209.3,241.8,210.1z"/>
			</g>
			<g>
				<path class="st4" d="M299.9,106c-2.8,4.8-5.7,9.5-8.5,14.3c-2,3.4-7.2,12-11.5,19.3c-2.1,3.7-4.4,8-6.7,12.4
					c1.4,4.4,2.8,8.8,4.2,13.1c4.3,3.9,9.1,8.2,11.9,10.2c2.6,1.9,4.2,3.1,5.2,3.9c15,8.1,30.3,15.5,46.2,21.7
					c5.8-2.7,11.5-5.3,17.3-8c7.1-3.2,14.1-6.1,21.2-9c39-28.5,70.3-67.6,126.3-65.7c62.8,2.1,140.3,59.4,199.2,81.8
					c48.7,18.5,31.3-10.4,48.7-16.2c0,0,8.1-22-69.6-69.5c-88.4-50.8-142-86.4-242.3-64.9C406,57,350.3,86.6,299.9,106z"/>
				<path class="st1" d="M729.6,210.6c-6.4,0-15.1-2.1-26.4-6.4c-20.6-7.8-43.1-19.7-66.9-32.3c-44.6-23.6-90.8-47.9-130.8-49.2
					c-42-1.4-69.7,21.2-98.8,45.3c-8,6.6-16.2,13.4-24.8,19.6l-1,0.5c-5.8,2.3-13.4,5.4-21.1,8.9c-5.8,2.6-11.5,5.3-17.3,8l-1.7,0.8
					l-1.8-0.7c-14.8-5.8-30-13-46.7-21.9l-0.7-0.5c-0.9-0.8-2.5-2-5-3.7c-2.5-1.8-6.5-5.2-12.3-10.6l-0.9-0.8l-0.4-1.1
					c-1.4-4.4-2.8-8.8-4.2-13.2l-0.6-1.8l1.7-3.2c2.1-3.9,4.1-7.6,5.9-10.9l20.9-35l1.4-0.6c18.8-7.2,38.4-15.9,57.3-24.3
					c32-14.2,62.3-27.6,85-32.5c20.3-4.4,39-6.5,57-6.5c64,0,110.3,26.7,174.3,63.8l14,8.1c77,47.1,73.1,70.7,71.6,74.9l-0.7,2
					l-2,0.7c-3.8,1.3-5,4-6.9,8.7C745.6,202.5,742.3,210.6,729.6,210.6z M501.8,113.7c1.3,0,2.6,0,4,0.1
					c42.1,1.4,89.2,26.2,134.7,50.3c23.6,12.4,45.8,24.2,65.9,31.8c10.1,3.9,17.9,5.8,23.2,5.8c6.7,0,7.8-2.8,10.1-8.3
					c1.7-4.3,3.9-9.6,9.6-12.6c-0.7-5.4-7.5-25.9-67.7-62.7l-14-8.1c-62.8-36.3-108.2-62.6-169.9-62.6c-17.4,0-35.4,2.1-55.1,6.3
					c-21.8,4.7-51.6,17.9-83.2,31.9c-18.6,8.2-37.8,16.8-56.3,24l-19.2,32.3c-1.7,3.1-3.7,6.8-5.7,10.6c1.1,3.4,2.2,6.8,3.2,10.2
					c5,4.6,8.6,7.6,10.6,9.1c2.4,1.7,4.1,3,5.1,3.8c15.5,8.3,29.8,15.1,43.5,20.6c5.2-2.4,10.4-4.8,15.6-7.2
					c7.6-3.4,15.1-6.5,20.9-8.8c8.2-6,16.2-12.6,23.9-19C429.2,137.8,458.3,113.7,501.8,113.7z"/>
			</g>
			<g>
				<path class="st4" d="M5.9,166.7c0,0,233,142.5,268.9,134.3c0,0,29,17.4,156.5-52.2c0,0,3.7-23.6,167-43.7
					c0,0,36.9-16.6-12.9-38.6c0,0-9.3-45.1-207.4,26.7c61.6-22.3,92.4-90.1,165.8-87.7c62.8,2.1,140.3,59.4,199.2,81.8
					c48.7,18.5,31.3-10.4,48.7-16.2c0,0,8.1-22-69.6-69.5c-88.4-50.8-142-86.4-242.2-64.9c-57.5,12.3-167.5,82-222.5,73.2
					c0,0-93.9-15-169.3-101.9L5.9,166.7z"/>
				<path class="st1" d="M287,307.4c-6.7,0-10.7-1-12.7-1.8c-0.9,0.1-1.8,0.2-2.9,0.2c0,0,0,0,0,0c-46,0-258.8-129.8-267.8-135.3
					L0,168.4L87.1,0l4.3,5C165.1,89.8,257.1,105.2,258,105.4c3,0.5,6.2,0.7,9.6,0.7h0c32.9,0,82.6-22,126.4-41.4
					c32-14.2,62.2-27.6,84.8-32.4c20.3-4.4,39-6.5,57-6.5c64,0,110.3,26.7,174.3,63.7l14.1,8.1c77,47.1,73.1,70.7,71.6,74.9l-0.7,2
					l-2,0.7c-3.8,1.3-5,4-6.9,8.7c-2.4,5.9-5.6,13.9-18.4,13.9c-6.4,0-15.1-2.1-26.4-6.4c-20.6-7.8-43.1-19.7-66.9-32.3
					c-44.6-23.6-90.8-47.9-130.8-49.2c-42.1-1.5-69.7,21.2-98.7,45.2c-7.4,6.1-15,12.3-22.8,18.2c52.8-16.8,94.3-25.4,123.6-25.4
					c31.6,0,40.6,10.2,43.1,15.1c18.2,8.3,27,17,27.1,26.5c0,12-14.2,18.8-15.8,19.5l-1.3,0.4C453.4,227.5,437,247.7,435.6,250
					l-0.3,1.7l-1.9,1.1C350.6,297.9,308.1,307.4,287,307.4z M277.1,297.2c0.1,0,29.6,14.3,150.8-51.7c4.9-7.8,31.2-27.7,169.1-44.8
					c3.1-1.6,10-6.1,10-11.1c0-2.6-2.3-9.8-23.4-19.1l-2.1-0.9l-0.5-2.3l0,0c0,0-3.8-10.4-35.3-10.4c-36.3,0-92.2,13.6-166.2,40.4
					l-3-8.4c0,0,0,0,0.1,0c24-8.7,43.7-25,62.7-40.7c29.1-24,59.1-48.6,104.7-47.3c42.1,1.4,89.2,26.2,134.7,50.3
					c23.5,12.4,45.8,24.2,65.9,31.8c10.1,3.9,18,5.8,23.2,5.8c6.7,0,7.8-2.8,10.1-8.3c1.7-4.3,3.8-9.6,9.5-12.6
					c-0.7-5.4-7.5-25.9-67.7-62.7l-14-8.1c-62.8-36.3-108.2-62.5-169.8-62.5c-17.4,0-35.4,2-55.1,6.3c-21.8,4.7-51.6,17.9-83.1,31.9
					c-46.8,20.8-95.2,42.2-130,42.2h0c-3.9,0-7.6-0.3-11-0.8l0,0c-8.7-1.5-95.9-19-167.6-98.4L11.8,165.1
					c76.9,46.9,225.4,131.8,259.6,131.8c0,0,0,0,0,0c1,0,1.8-0.1,2.4-0.2l1.7-0.4L277.1,297.2C277.1,297.2,277.1,297.2,277.1,297.2z
					"/>
			</g>
		</g>
	</g>
</g>
</svg>
