<?xml version="1.0" encoding="utf-8"?>
<!-- Generator: Adobe Illustrator 19.2.1, SVG Export Plug-In . SVG Version: 6.00 Build 0)  -->
<svg version="1.1" xmlns="http://www.w3.org/2000/svg" xmlns:xlink="http://www.w3.org/1999/xlink" x="0px" y="0px"
	 viewBox="0 0 123 100.1" style="enable-background:new 0 0 123 100.1;" xml:space="preserve">
<style type="text/css">
	.st0{fill:url(#SVGID_1_);}
	.st1{fill:url(#SVGID_2_);}
	.st2{fill:url(#SVGID_3_);}
	.st3{fill:url(#SVGID_4_);}
	.st4{fill:url(#SVGID_5_);}
	.st5{fill:url(#SVGID_6_);}
	.st6{fill:url(#SVGID_7_);}
	.st7{fill:url(#SVGID_8_);}
	.st8{fill:url(#SVGID_9_);}
	.st9{fill:url(#SVGID_10_);}
	.st10{fill:url(#SVGID_11_);}
	.st11{fill:#FFFFFF;}
	.st12{fill:url(#SVGID_12_);}
	.st13{fill:url(#SVGID_13_);}
	.st14{fill:url(#SVGID_14_);}
	.st15{fill:url(#SVGID_15_);}
	.st16{fill:#214254;}
	.st17{fill:url(#SVGID_16_);}
	.st18{fill:url(#SVGID_17_);}
	.st19{fill:url(#SVGID_18_);}
	.st20{fill:url(#SVGID_19_);}
	.st21{fill:url(#SVGID_20_);}
	.st22{fill:url(#SVGID_21_);}
	.st23{fill:url(#SVGID_22_);}
	.st24{fill:url(#SVGID_23_);}
	.st25{fill:url(#SVGID_24_);}
	.st26{fill:url(#SVGID_25_);}
	.st27{fill:url(#SVGID_26_);}
	.st28{fill:#BBCE51;}
	.st29{fill:#788D91;}
	.st30{fill:url(#SVGID_27_);}
	.st31{fill:url(#SVGID_28_);}
	.st32{fill:url(#SVGID_29_);}
	.st33{fill:#9DB5CC;}
	.st34{fill:#003562;}
	.st35{fill:#BED63A;}
	.st36{fill:url(#SVGID_30_);}
	.st37{fill:url(#SVGID_31_);}
	.st38{fill:url(#SVGID_32_);}
	.st39{fill:url(#SVGID_33_);}
	.st40{fill:url(#SVGID_34_);}
	.st41{fill:url(#SVGID_35_);}
	.st42{fill:#042337;}
	.st43{fill:#5E7074;}
	.st44{fill:url(#SVGID_36_);}
	.st45{fill:url(#SVGID_37_);}
	.st46{fill:url(#SVGID_38_);}
	.st47{fill:url(#SVGID_39_);}
	.st48{fill:url(#SVGID_40_);}
	.st49{fill:#A6CE39;}
	.st50{fill:url(#SVGID_41_);}
	.st51{fill:url(#SVGID_42_);}
	.st52{fill:url(#SVGID_43_);}
	.st53{fill:url(#SVGID_44_);}
	.st54{fill:url(#SVGID_45_);}
	.st55{fill:url(#SVGID_46_);}
	.st56{fill:url(#SVGID_47_);}
	.st57{fill:url(#SVGID_48_);}
	.st58{fill:url(#SVGID_49_);}
	.st59{fill:url(#SVGID_50_);}
	.st60{fill:url(#SVGID_51_);}
	.st61{fill:url(#SVGID_52_);}
	.st62{fill:url(#SVGID_53_);}
	.st63{enable-background:new    ;}
	.st64{fill:url(#SVGID_54_);}
	.st65{fill:url(#SVGID_55_);}
	.st66{fill:url(#SVGID_56_);}
	.st67{fill:url(#SVGID_57_);}
	.st68{fill:#889DA0;}
	.st69{fill:#80BA4C;}
	.st70{fill:url(#SVGID_58_);}
	.st71{fill:url(#SVGID_59_);}
	.st72{fill:url(#SVGID_60_);}
	.st73{fill:url(#SVGID_61_);}
	.st74{fill:url(#SVGID_62_);}
	.st75{fill:url(#SVGID_63_);}
	.st76{fill:url(#SVGID_64_);}
	.st77{fill:url(#SVGID_65_);}
	.st78{fill:url(#SVGID_66_);}
	.st79{fill:url(#SVGID_67_);}
	.st80{fill:url(#SVGID_68_);}
	.st81{fill:url(#SVGID_69_);}
	.st82{fill:#021938;}
	.st83{fill:url(#SVGID_70_);}
	.st84{fill:url(#SVGID_71_);}
	.st85{fill:url(#SVGID_72_);}
	.st86{fill:url(#SVGID_73_);}
	.st87{fill:url(#SVGID_74_);}
	.st88{fill:url(#SVGID_75_);}
	.st89{fill:url(#SVGID_76_);}
	.st90{fill:url(#SVGID_77_);}
	.st91{fill:#75AA3B;}
</style>
<g id="Layer_2">
</g>
<g id="Layer_4">
	<g>
		<g>
			<path class="st33" d="M44.9,76.8c2.5,2.4,5,4.5,7.6,6.5c-2.3,2.5-4.5,4.9-6.8,7c-2.7-2-5.3-4.2-7.9-6.7
				C40.1,81.4,42.5,79.1,44.9,76.8"/>
			<path class="st33" d="M47.2,56.9c1.6,2.3,3.5,4.6,5.5,6.7c-2.6,2.4-5.1,4.7-7.7,7.1c-2.3-2.5-4.3-5-6.2-7.6
				C41.6,61,44.4,58.9,47.2,56.9"/>
			<path class="st34" d="M41.9,19.6c-0.1,0.1-0.2,0.2-0.3,0.3c-1.1,1.2-1.9,2.5-2.5,4c-3.2,0.4-6.4,1.1-9.3,2.1
				c0.7-1.7,1.6-3.2,2.8-4.5c0.1-0.1,0.2-0.3,0.4-0.4C35.8,20.3,38.8,19.8,41.9,19.6"/>
			<path class="st34" d="M65.5,74.3c2.2,1.4,4.5,2.6,6.7,3.6c-1.6,3.1-3.3,6.1-5.2,8.9c-2.5-1.1-5-2.4-7.5-4
				C61.5,80.1,63.5,77.3,65.5,74.3"/>
			<path class="st33" d="M55.3,66.3c2.1,2.1,4.3,3.9,6.5,5.6c-2.1,2.8-4.3,5.5-6.5,8.1c-2.5-1.8-5-3.9-7.4-6.2
				C50.5,71.3,52.9,68.8,55.3,66.3"/>
			<path class="st34" d="M59.4,48.7c1.2,1.7,2.6,3.4,4.1,5c-2.4,2.3-5,4.6-7.5,7c-1.9-2-3.6-4.1-5.1-6.3
				C53.7,52.4,56.5,50.5,59.4,48.7"/>
			<path class="st33" d="M54.8,40.7c0.7,1.7,1.7,3.5,2.7,5.2c-3,1.5-6,3.2-9,5c-1.3-2.2-2.5-4.4-3.4-6.5
				C48.3,43,51.6,41.8,54.8,40.7"/>
			<path class="st33" d="M52.5,33c0.2,1.6,0.7,3.3,1.2,5c-3.3,0.8-6.7,1.8-10,3c-0.7-2.1-1.2-4.2-1.5-6.2
				C45.6,33.9,49.1,33.3,52.5,33"/>
			<path class="st33" d="M55.4,20.9c-0.1,0.1-0.2,0.2-0.2,0.3c-0.8,0.9-1.4,1.9-1.9,3c-3.4-0.5-6.8-0.7-10.1-0.5
				c0.6-1.4,1.4-2.6,2.3-3.7c0.1-0.1,0.2-0.2,0.3-0.3C49,19.7,52.2,20.1,55.4,20.9"/>
			<path class="st33" d="M60.4,18.1c-1.3,0.3-2.4,0.8-3.5,1.5c-3-0.9-6.1-1.5-9.1-1.7c1.3-0.9,2.8-1.5,4.4-1.9
				C55,16.3,57.7,17,60.4,18.1"/>
			<path class="st33" d="M77,21.7c-0.1,0-0.1-0.1-0.2-0.1l0.6,0.4l0.6,0.4C77.7,22.1,77.4,21.9,77,21.7"/>
			<path class="st33" d="M98.1,47.7c-0.5-1.7-1.1-3.4-1.9-5.1c0,0.1,0.1,0.2,0.1,0.2l0.9,2.1c0.5,1.4,1.2,3.4,1.7,4.8
				C98.7,49.1,98.4,48.4,98.1,47.7"/>
			<path class="st33" d="M93.5,65.2c1-0.5,1.9-1.2,2.7-2.1c0.1-0.1,0.2-0.2,0.2-0.3c0.6,3.1,0.9,6.2,0.9,9.3
				c-0.1,0.1-0.2,0.2-0.3,0.3c-1,1.1-2.1,2-3.4,2.7C93.9,71.8,93.9,68.5,93.5,65.2"/>
			<path class="st33" d="M80.5,65.3c1.6,0.5,3.2,0.9,4.7,1.1c-0.4,3.5-1.1,6.9-2,10.2c-1.9-0.2-3.9-0.7-5.9-1.4
				C78.6,72,79.7,68.7,80.5,65.3"/>
			<path class="st33" d="M65.4,55.7c1.6,1.5,3.2,2.9,4.9,4.1c-1.8,2.8-3.7,5.7-5.8,8.5c-2.1-1.5-4.1-3.3-6.1-5.2
				C60.8,60.6,63.2,58.1,65.4,55.7"/>
			<path class="st33" d="M71,41.7c0.7,0.9,1.4,1.9,2.3,2.8c-2.1,2-4.4,4.1-6.8,6.3c-1.3-1.4-2.5-2.9-3.6-4.4
				C65.7,44.7,68.4,43.1,71,41.7"/>
			<path class="st33" d="M68.5,37.3c0.4,1,0.9,1.9,1.5,2.9c-2.8,1.1-5.7,2.4-8.7,3.8c-0.9-1.5-1.7-3-2.4-4.6
				C62.2,38.5,65.4,37.8,68.5,37.3"/>
			<path class="st33" d="M67.2,33c0.1,0.9,0.4,1.8,0.7,2.8C64.6,36,61.3,36.4,58,37c-0.5-1.5-0.9-3-1.1-4.4
				C60.4,32.6,63.8,32.7,67.2,33"/>
			<path class="st33" d="M67.3,29.2c-0.2,0.7-0.2,1.5-0.2,2.4c-3.4-0.6-6.9-1-10.3-1.1c0-1.3,0.1-2.6,0.3-3.8
				C60.5,27.3,63.9,28.1,67.3,29.2"/>
			<path class="st33" d="M68.8,26.3c0,0-0.1,0.1-0.1,0.1c-0.4,0.5-0.8,1-1,1.7c-3.3-1.4-6.6-2.4-10-3.2c0.4-1,0.9-1.8,1.6-2.6
				c0.1-0.1,0.1-0.1,0.2-0.2C62.6,23.2,65.8,24.6,68.8,26.3"/>
			<path class="st33" d="M71.6,24.7c-0.7,0.2-1.4,0.5-1.9,0.9c-2.9-1.9-5.8-3.4-8.8-4.6c0.9-0.6,1.9-1.1,3.1-1.3
				C66.5,21,69.1,22.7,71.6,24.7"/>
			<path class="st33" d="M75.2,24.6c-0.9-0.1-1.7-0.2-2.4-0.1c-2.2-2.1-4.6-3.8-7-5.2c1.2-0.1,2.5,0,3.8,0.2
				C71.6,20.8,73.5,22.6,75.2,24.6"/>
			<path class="st33" d="M79.3,26c-0.9-0.4-1.8-0.8-2.7-1c-1.4-2-3.1-3.7-4.8-5c1.4,0.4,2.8,0.9,4.3,1.6
				C77.3,22.7,78.4,24.2,79.3,26"/>
			<path class="st33" d="M83.6,28.6c-0.9-0.7-1.8-1.3-2.8-1.9c-0.6-1.6-1.4-3-2.4-4c1.5,0.8,2.9,1.8,4.4,2.9
				C83.3,26.4,83.5,27.3,83.6,28.6"/>
			<path class="st33" d="M87.6,32.4c-0.4-0.5-0.8-0.9-1.2-1.4c-0.4-0.4-0.9-0.9-1.3-1.3c0.3-1,0.3-1.7,0-2.2c0.7,0.6,1.4,1.3,2.1,2
				c0.7,0.7,1.3,1.4,2,2.1C88.9,31.7,88.4,32,87.6,32.4"/>
			<path class="st33" d="M90.6,36.8c-0.5-1-1.2-1.9-1.9-2.9c1-0.2,1.8-0.1,2.2,0.2c1.1,1.5,2.1,3,3,4.5
				C93.2,37.8,92.1,37.2,90.6,36.8"/>
			<path class="st33" d="M92.5,41.2c-0.3-0.9-0.6-1.9-1.1-2.9c1.6,0.7,2.8,1.7,3.8,2.7c0.7,1.5,1.3,3,1.7,4.5
				C95.8,44,94.3,42.5,92.5,41.2"/>
			<path class="st33" d="M93.1,45.3c0-0.8,0-1.7-0.2-2.6c1.9,1.6,3.4,3.4,4.6,5.2c0.3,1.4,0.4,2.8,0.3,4.1
				C96.6,49.7,95,47.4,93.1,45.3"/>
			<path class="st33" d="M92.2,48.6c0.3-0.6,0.6-1.3,0.7-2.1c1.9,2.4,3.4,4.9,4.6,7.5c-0.2,1.2-0.6,2.3-1.1,3.3
				C95.4,54.4,94,51.5,92.2,48.6"/>
			<path class="st33" d="M90,50.9c0.6-0.3,1.1-0.7,1.5-1.2c0,0,0.1-0.1,0.1-0.1c1.6,3,2.9,6.1,3.8,9.2c-0.1,0.1-0.1,0.2-0.2,0.2
				c-0.7,0.8-1.5,1.4-2.4,1.9C92.2,57.5,91.3,54.2,90,50.9"/>
			<path class="st33" d="M86.7,51.7c0.8,0,1.5-0.1,2.2-0.3c1.1,3.4,1.8,6.8,2.3,10.3c-1.1,0.3-2.3,0.5-3.5,0.5
				C87.6,58.6,87.3,55.1,86.7,51.7"/>
			<path class="st33" d="M82.8,51c0.9,0.3,1.8,0.5,2.6,0.6c0.4,3.4,0.4,6.9,0.2,10.4c-1.3-0.2-2.7-0.5-4.1-1
				C82.1,57.7,82.6,54.3,82.8,51"/>
			<path class="st34" d="M78.5,48.9c0.9,0.6,1.9,1.1,2.8,1.5c-0.5,3.2-1.2,6.5-2.1,9.7c-1.4-0.6-2.9-1.4-4.4-2.3
				C76.2,54.8,77.5,51.8,78.5,48.9"/>
			<path class="st33" d="M74.3,45.6c0.9,0.9,1.8,1.6,2.7,2.3c-1.3,2.7-2.9,5.5-4.6,8.3c-1.5-1.1-2.9-2.3-4.3-3.6
				C70.4,50.2,72.4,47.8,74.3,45.6"/>
		</g>
	</g>
</g>
</svg>
