<?xml version="1.0" encoding="utf-8"?>
<!-- Generator: Adobe Illustrator 19.2.1, SVG Export Plug-In . SVG Version: 6.00 Build 0)  -->
<svg version="1.1" id="Layer_1" xmlns="http://www.w3.org/2000/svg" xmlns:xlink="http://www.w3.org/1999/xlink" x="0px" y="0px"
	 viewBox="0 0 720 479.2" style="enable-background:new 0 0 720 479.2;" xml:space="preserve">
<style type="text/css">
	.st0{fill:#C3C3C3;}
</style>
<g>
	<g>
		<polygon class="st0" points="369.6,192 370.2,192.3 370.2,192 		"/>
		<polygon class="st0" points="371.4,192 371.4,193 375.1,195.1 375.1,192 		"/>
		<polygon class="st0" points="376.4,195.7 380.1,195.7 380.1,192.5 379.2,192 376.4,192 		"/>
		<polygon class="st0" points="385,195.7 385,194.9 381.3,193.1 381.3,195.7 		"/>
		<polygon class="st0" points="386.8,195.7 386.3,195.5 386.3,195.7 		"/>
		<path class="st0" d="M378.5,197c0.5,0.3,1.1,0.7,1.6,1v-1H378.5z"/>
		<path class="st0" d="M385,197h-3.7v1.9c0.7,0.6,1.4,1.1,2,1.8h1.7V197z"/>
		<polygon class="st0" points="386.3,200.7 390,200.7 390,197.3 389.3,197 386.3,197 		"/>
		<polygon class="st0" points="394.9,200.7 394.9,199.7 391.2,197.9 391.2,200.7 		"/>
		<polygon class="st0" points="396.9,200.7 396.2,200.3 396.2,200.7 		"/>
		<path class="st0" d="M384.4,201.9c0.2,0.2,0.4,0.5,0.6,0.7v-0.7H384.4z"/>
		<path class="st0" d="M390,201.9h-3.7v2.5c0,0,0,0.1,0.1,0.1l0.7,1.1h2.9V201.9z"/>
		<rect x="391.2" y="201.9" class="st0" width="3.7" height="3.7"/>
		<polygon class="st0" points="396.2,205.7 399.9,205.7 399.9,202.2 399.5,201.9 396.2,201.9 		"/>
		<polygon class="st0" points="404.9,205.7 404.9,204.6 401.1,202.8 401.1,205.7 		"/>
		<polygon class="st0" points="387.9,206.9 390,210.2 390,206.9 		"/>
		<rect x="391.2" y="206.9" class="st0" width="3.7" height="3.7"/>
		<rect x="396.2" y="206.9" class="st0" width="3.7" height="3.7"/>
		<rect x="401.1" y="206.9" class="st0" width="3.7" height="3.7"/>
		<polygon class="st0" points="394.9,211.8 391.2,211.8 391.2,212.1 393.5,215.6 394.9,215.6 		"/>
		<rect x="396.2" y="211.8" class="st0" width="3.7" height="3.7"/>
		<rect x="401.1" y="211.8" class="st0" width="3.7" height="3.7"/>
		<polygon class="st0" points="394.3,216.8 394.9,217.8 394.9,216.8 		"/>
		<path class="st0" d="M399.9,216.8h-3.7v3l0.4,0.6c0,0.1,0.1,0.1,0.1,0.2h3.2V216.8z"/>
		<rect x="401.1" y="216.8" class="st0" width="3.7" height="3.7"/>
		<path class="st0" d="M360.3,225.5v-3.7h-3.6c0,0-0.1,0-0.1,0.1v3.7H360.3z"/>
		<path class="st0" d="M361.5,225.5h3.7V222c-0.2-0.1-0.3-0.2-0.5-0.2h-3.2V225.5z"/>
		<path class="st0" d="M369.2,225.5c-0.8-1.1-1.7-2-2.7-2.7v2.7H369.2z"/>
		<path class="st0" d="M399.9,221.8h-2.6c0.6,1.3,1,2.5,1.2,3.7h1.5V221.8z"/>
		<rect x="401.1" y="221.8" class="st0" width="3.7" height="3.7"/>
		<rect x="356.6" y="226.7" class="st0" width="3.7" height="3.7"/>
		<rect x="361.5" y="226.7" class="st0" width="3.7" height="3.7"/>
		<polygon class="st0" points="366.5,230.4 370.2,230.4 370.2,227 370,226.7 366.5,226.7 		"/>
		<polygon class="st0" points="372.4,230.4 371.4,228.9 371.4,230.4 		"/>
		<path class="st0" d="M399.9,226.7h-1.3c0.1,1.3-0.1,2.6-0.5,3.7h1.8V226.7z"/>
		<rect x="401.1" y="226.7" class="st0" width="3.7" height="3.7"/>
		<rect x="356.6" y="231.7" class="st0" width="3.7" height="3.7"/>
		<rect x="361.5" y="231.7" class="st0" width="3.7" height="3.7"/>
		<rect x="366.5" y="231.7" class="st0" width="3.7" height="3.7"/>
		<polygon class="st0" points="371.4,235.4 375.1,235.4 375.1,234.6 373.2,231.7 371.4,231.7 		"/>
		<polygon class="st0" points="394.9,234.4 393.6,235.4 394.9,235.4 		"/>
		<path class="st0" d="M399.9,235.4v-3.7h-2.3c-0.3,0.6-0.8,1.2-1.3,1.7l-0.1,0.1v1.9H399.9z"/>
		<rect x="401.1" y="231.7" class="st0" width="3.7" height="3.7"/>
		<rect x="356.6" y="236.6" class="st0" width="3.7" height="3.7"/>
		<rect x="361.5" y="236.6" class="st0" width="3.7" height="3.7"/>
		<rect x="366.5" y="236.6" class="st0" width="3.7" height="3.7"/>
		<rect x="371.4" y="236.6" class="st0" width="3.7" height="3.7"/>
		<path class="st0" d="M376.4,240.3h3.7V240c-1.1-0.6-2.2-1.4-3.2-2.6l-0.5-0.8h0V240.3z"/>
		<path class="st0" d="M390,240.3V238l-1.9,1.4c-0.6,0.4-1.2,0.7-1.8,0.9v0H390z"/>
		<polygon class="st0" points="394.9,240.3 394.9,236.6 391.9,236.6 391.2,237.1 391.2,240.3 		"/>
		<rect x="396.2" y="236.6" class="st0" width="3.7" height="3.7"/>
		<rect x="401.1" y="236.6" class="st0" width="3.7" height="3.7"/>
		<rect x="356.6" y="241.6" class="st0" width="3.7" height="3.7"/>
		<rect x="361.5" y="241.6" class="st0" width="3.7" height="3.7"/>
		<rect x="366.5" y="241.6" class="st0" width="3.7" height="3.7"/>
		<rect x="371.4" y="241.6" class="st0" width="3.7" height="3.7"/>
		<rect x="376.4" y="241.6" class="st0" width="3.7" height="3.7"/>
		<rect x="381.3" y="241.6" class="st0" width="3.7" height="3.7"/>
		<rect x="386.3" y="241.6" class="st0" width="3.7" height="3.7"/>
		<rect x="391.2" y="241.6" class="st0" width="3.7" height="3.7"/>
		<rect x="396.2" y="241.6" class="st0" width="3.7" height="3.7"/>
		<rect x="401.1" y="241.6" class="st0" width="3.7" height="3.7"/>
		<rect x="356.6" y="246.5" class="st0" width="3.7" height="3.7"/>
		<rect x="361.5" y="246.5" class="st0" width="3.7" height="3.7"/>
		<rect x="366.5" y="246.5" class="st0" width="3.7" height="3.7"/>
		<rect x="371.4" y="246.5" class="st0" width="3.7" height="3.7"/>
		<rect x="376.4" y="246.5" class="st0" width="3.7" height="3.7"/>
		<rect x="381.3" y="246.5" class="st0" width="3.7" height="3.7"/>
		<rect x="386.3" y="246.5" class="st0" width="3.7" height="3.7"/>
		<rect x="391.2" y="246.5" class="st0" width="3.7" height="3.7"/>
		<rect x="396.2" y="246.5" class="st0" width="3.7" height="3.7"/>
		<rect x="401.1" y="246.5" class="st0" width="3.7" height="3.7"/>
		<rect x="356.6" y="251.5" class="st0" width="3.7" height="3.7"/>
		<rect x="361.5" y="251.5" class="st0" width="3.7" height="3.7"/>
		<rect x="366.5" y="251.5" class="st0" width="3.7" height="3.7"/>
		<rect x="371.4" y="251.5" class="st0" width="3.7" height="3.7"/>
		<rect x="376.4" y="251.5" class="st0" width="3.7" height="3.7"/>
		<rect x="381.3" y="251.5" class="st0" width="3.7" height="3.7"/>
		<rect x="386.3" y="251.5" class="st0" width="3.7" height="3.7"/>
		<rect x="391.2" y="251.5" class="st0" width="3.7" height="3.7"/>
		<rect x="396.2" y="251.5" class="st0" width="3.7" height="3.7"/>
		<rect x="401.1" y="251.5" class="st0" width="3.7" height="3.7"/>
		<rect x="356.6" y="256.4" class="st0" width="3.7" height="3.7"/>
		<rect x="361.5" y="256.4" class="st0" width="3.7" height="3.7"/>
		<rect x="366.5" y="256.4" class="st0" width="3.7" height="3.7"/>
		<rect x="371.4" y="256.4" class="st0" width="3.7" height="3.7"/>
		<rect x="376.4" y="256.4" class="st0" width="3.7" height="3.7"/>
		<rect x="381.3" y="256.4" class="st0" width="3.7" height="3.7"/>
		<rect x="386.3" y="256.4" class="st0" width="3.7" height="3.7"/>
		<rect x="391.2" y="256.4" class="st0" width="3.7" height="3.7"/>
		<rect x="396.2" y="256.4" class="st0" width="3.7" height="3.7"/>
		<rect x="401.1" y="256.4" class="st0" width="3.7" height="3.7"/>
		<rect x="356.6" y="261.4" class="st0" width="3.7" height="3.7"/>
		<rect x="361.5" y="261.4" class="st0" width="3.7" height="3.7"/>
		<rect x="366.5" y="261.4" class="st0" width="3.7" height="3.7"/>
		<rect x="371.4" y="261.4" class="st0" width="3.7" height="3.7"/>
		<rect x="376.4" y="261.4" class="st0" width="3.7" height="3.7"/>
		<rect x="381.3" y="261.4" class="st0" width="3.7" height="3.7"/>
		<rect x="386.3" y="261.4" class="st0" width="3.7" height="3.7"/>
		<rect x="391.2" y="261.4" class="st0" width="3.7" height="3.7"/>
		<rect x="396.2" y="261.4" class="st0" width="3.7" height="3.7"/>
		<rect x="401.1" y="261.4" class="st0" width="3.7" height="3.7"/>
		<rect x="356.6" y="266.3" class="st0" width="3.7" height="3.7"/>
		<rect x="361.5" y="266.3" class="st0" width="3.7" height="3.7"/>
		<rect x="366.5" y="266.3" class="st0" width="3.7" height="3.7"/>
		<rect x="371.4" y="266.3" class="st0" width="3.7" height="3.7"/>
		<rect x="376.4" y="266.3" class="st0" width="3.7" height="3.7"/>
		<rect x="381.3" y="266.3" class="st0" width="3.7" height="3.7"/>
		<rect x="386.3" y="266.3" class="st0" width="3.7" height="3.7"/>
		<rect x="391.2" y="266.3" class="st0" width="3.7" height="3.7"/>
		<rect x="396.2" y="266.3" class="st0" width="3.7" height="3.7"/>
		<rect x="401.1" y="266.3" class="st0" width="3.7" height="3.7"/>
		<rect x="356.6" y="271.3" class="st0" width="3.7" height="3.7"/>
		<rect x="361.5" y="271.3" class="st0" width="3.7" height="3.7"/>
		<rect x="366.5" y="271.3" class="st0" width="3.7" height="3.7"/>
		<rect x="371.4" y="271.3" class="st0" width="3.7" height="3.7"/>
		<rect x="376.4" y="271.3" class="st0" width="3.7" height="3.7"/>
		<rect x="381.3" y="271.3" class="st0" width="3.7" height="3.7"/>
		<rect x="386.3" y="271.3" class="st0" width="3.7" height="3.7"/>
		<rect x="391.2" y="271.3" class="st0" width="3.7" height="3.7"/>
		<rect x="396.2" y="271.3" class="st0" width="3.7" height="3.7"/>
		<rect x="401.1" y="271.3" class="st0" width="3.7" height="3.7"/>
		<rect x="356.6" y="276.2" class="st0" width="3.7" height="3.7"/>
		<rect x="361.5" y="276.2" class="st0" width="3.7" height="3.7"/>
		<rect x="366.5" y="276.2" class="st0" width="3.7" height="3.7"/>
		<rect x="371.4" y="276.2" class="st0" width="3.7" height="3.7"/>
		<rect x="376.4" y="276.2" class="st0" width="3.7" height="3.7"/>
		<rect x="381.3" y="276.2" class="st0" width="3.7" height="3.7"/>
		<rect x="386.3" y="276.2" class="st0" width="3.7" height="3.7"/>
		<path class="st0" d="M391.2,276.2v3.5c1.2-0.6,2.5-0.9,3.7-0.9v-2.6H391.2z"/>
		<path class="st0" d="M399.9,276.2h-3.7v2.8c0.9,0.2,1.7,0.5,2.6,0.9h1.1V276.2z"/>
		<path class="st0" d="M401.1,279.1c0.6-0.9,1.5-1.9,2.5-2.9h-2.5V279.1z"/>
		<rect x="356.6" y="281.2" class="st0" width="3.7" height="3.7"/>
		<rect x="361.5" y="281.2" class="st0" width="3.7" height="3.7"/>
		<rect x="366.5" y="281.2" class="st0" width="3.7" height="3.7"/>
		<rect x="371.4" y="281.2" class="st0" width="3.7" height="3.7"/>
		<rect x="376.4" y="281.2" class="st0" width="3.7" height="3.7"/>
		<rect x="381.3" y="281.2" class="st0" width="3.7" height="3.7"/>
		<polygon class="st0" points="386.3,284 389.5,281.2 386.3,281.2 		"/>
		<rect x="356.6" y="286.2" class="st0" width="3.7" height="3.7"/>
		<rect x="361.5" y="286.2" class="st0" width="3.7" height="3.7"/>
		<rect x="366.5" y="286.2" class="st0" width="3.7" height="3.7"/>
		<rect x="371.4" y="286.2" class="st0" width="3.7" height="3.7"/>
		<rect x="376.4" y="286.2" class="st0" width="3.7" height="3.7"/>
		<path class="st0" d="M381.3,289.2c0.2-0.7,0.6-1.3,1.1-1.8l1.4-1.2h-2.5V289.2z"/>
		<rect x="356.6" y="291.1" class="st0" width="3.7" height="3.7"/>
		<rect x="361.5" y="291.1" class="st0" width="3.7" height="3.7"/>
		<rect x="366.5" y="291.1" class="st0" width="3.7" height="3.7"/>
		<rect x="371.4" y="291.1" class="st0" width="3.7" height="3.7"/>
		<path class="st0" d="M376.4,291.1v3.7h1.8c0.6-0.3,1.3-0.5,1.9-0.5v-3.2H376.4z"/>
		<path class="st0" d="M360.3,296.1H357c1.4,0.5,2.1,2.5,1.1,3.7h2.1V296.1z"/>
		<rect x="361.5" y="296.1" class="st0" width="3.7" height="3.7"/>
		<rect x="366.5" y="296.1" class="st0" width="3.7" height="3.7"/>
		<polygon class="st0" points="371.4,296.1 371.4,299.8 371.8,299.8 375.1,296.9 375.1,296.1 		"/>
		<polygon class="st0" points="360.3,304.7 360.3,301 356.7,301 356.6,301.1 356.6,304.7 		"/>
		<rect x="361.5" y="301" class="st0" width="3.7" height="3.7"/>
		<path class="st0" d="M366.5,301v3.7h1.1c0.2-0.7,0.5-1.3,0.9-2.1l1.7-1.5V301H366.5z"/>
		<rect x="356.6" y="306" class="st0" width="3.7" height="3.7"/>
		<rect x="361.5" y="306" class="st0" width="3.7" height="3.7"/>
		<path class="st0" d="M366.5,309.7h0.9c-0.2-1.1-0.3-2.3-0.1-3.7h-0.8V309.7z"/>
		<rect x="356.6" y="310.9" class="st0" width="3.7" height="3.7"/>
		<polygon class="st0" points="361.5,310.9 361.5,314.6 362.8,314.6 365.2,312.8 365.2,310.9 		"/>
		<path class="st0" d="M366.5,311.9l1.1-0.8c0-0.1,0-0.1,0-0.2h-1.1V311.9z"/>
		<path class="st0" d="M356.6,315.9v1.2c1.2,0,2.4-0.2,3.7-0.7v-0.4H356.6z"/>
		<polygon class="st0" points="466.2,185.8 466.2,183.5 462.4,185 462.4,185.8 		"/>
		<polygon class="st0" points="500.2,183.1 500.2,180.2 500,179.4 498.8,179.4 496.5,180.3 496.5,183.1 		"/>
		<polygon class="st0" points="453.5,193.6 450.6,194.8 453.5,194.8 		"/>
		<polygon class="st0" points="483.7,182 483.7,178.8 480,180.3 480,182 		"/>
		<polygon class="st0" points="497.7,212.8 497.7,209.1 494,209.1 494,209.1 494,212.8 		"/>
		<rect x="465.3" y="188.6" class="st0" width="3.7" height="3.7"/>
		<rect x="552" y="194.5" class="st0" width="3.7" height="3.7"/>
		<polygon class="st0" points="486.6,187.8 487.9,187.8 486.7,184.1 486.6,184.1 		"/>
		<polygon class="st0" points="407.1,205.7 406.1,205.2 406.1,205.7 		"/>
		<polygon class="st0" points="434.6,205.5 434.3,205.7 434.6,205.7 		"/>
		<polygon class="st0" points="439.5,205.7 439.5,203.5 435.8,205 435.8,205.7 		"/>
		<polygon class="st0" points="444.5,205.7 444.5,201.9 443.5,201.9 440.8,203 440.8,205.7 		"/>
		<rect x="445.7" y="201.9" class="st0" width="3.7" height="3.7"/>
		<rect x="451.2" y="199.2" class="st0" width="3.7" height="3.7"/>
		<rect x="456.6" y="196.5" class="st0" width="3.7" height="3.7"/>
		<rect x="460.6" y="201.9" class="st0" width="3.7" height="3.7"/>
		<rect x="472" y="197" class="st0" width="3.7" height="3.7"/>
		<polygon class="st0" points="481.1,207.1 484,207.1 482.8,203.4 481.1,203.4 		"/>
		<polygon class="st0" points="406.1,210.6 409.8,210.6 409.8,207 409.6,206.9 406.1,206.9 		"/>
		<path class="st0" d="M414.8,210.6v-1.9c-1.9-0.4-3.3-0.9-3.7-1.1v3H414.8z"/>
		<path class="st0" d="M419.7,210.6v-1.3c-1.3-0.1-2.6-0.2-3.7-0.4v1.7H419.7z"/>
		<path class="st0" d="M424.7,210.6V209c-1.3,0.2-2.5,0.3-3.7,0.3v1.3H424.7z"/>
		<path class="st0" d="M429.6,210.6v-3.1l-0.5,0.2c-1.1,0.4-2.1,0.8-3.2,1v1.8H429.6z"/>
		<polygon class="st0" points="434.6,210.6 434.6,206.9 431.3,206.9 430.9,207 430.9,210.6 		"/>
		<rect x="435.8" y="206.9" class="st0" width="3.7" height="3.7"/>
		<rect x="508.4" y="161.6" class="st0" width="3.7" height="3.7"/>
		<rect x="445.7" y="206.9" class="st0" width="3.7" height="3.7"/>
		<rect x="480.2" y="189.1" class="st0" width="3.7" height="3.7"/>
		<rect x="457.1" y="207.1" class="st0" width="3.7" height="3.7"/>
		<rect x="501" y="187.3" class="st0" width="3.7" height="3.7"/>
		<rect x="468.3" y="205.2" class="st0" width="3.7" height="3.7"/>
		<polygon class="st0" points="524,189.3 527.7,189.3 527.7,187 527.3,185.6 524,185.6 		"/>
		<rect x="406.1" y="211.8" class="st0" width="3.7" height="3.7"/>
		<rect x="411" y="211.8" class="st0" width="3.7" height="3.7"/>
		<rect x="416" y="211.8" class="st0" width="3.7" height="3.7"/>
		<rect x="421" y="211.8" class="st0" width="3.7" height="3.7"/>
		<rect x="425.9" y="211.8" class="st0" width="3.7" height="3.7"/>
		<rect x="430.9" y="211.8" class="st0" width="3.7" height="3.7"/>
		<rect x="435.8" y="211.8" class="st0" width="3.7" height="3.7"/>
		<rect x="440.8" y="211.8" class="st0" width="3.7" height="3.7"/>
		<rect x="445.7" y="211.8" class="st0" width="3.7" height="3.7"/>
		<rect x="450.7" y="211.8" class="st0" width="3.7" height="3.7"/>
		<rect x="455.6" y="211.8" class="st0" width="3.7" height="3.7"/>
		<rect x="464.6" y="210.1" class="st0" width="3.7" height="3.7"/>
		<rect x="471.5" y="215.1" class="st0" width="3.7" height="3.7"/>
		<rect x="529.9" y="219.3" class="st0" width="3.7" height="3.7"/>
		<rect x="406.1" y="216.8" class="st0" width="3.7" height="3.7"/>
		<rect x="411" y="216.8" class="st0" width="3.7" height="3.7"/>
		<rect x="416" y="216.8" class="st0" width="3.7" height="3.7"/>
		<rect x="421" y="216.8" class="st0" width="3.7" height="3.7"/>
		<rect x="425.9" y="216.8" class="st0" width="3.7" height="3.7"/>
		<rect x="430.9" y="216.8" class="st0" width="3.7" height="3.7"/>
		<rect x="435.8" y="216.8" class="st0" width="3.7" height="3.7"/>
		<rect x="440.8" y="216.8" class="st0" width="3.7" height="3.7"/>
		<rect x="445.7" y="216.8" class="st0" width="3.7" height="3.7"/>
		<rect x="542.8" y="217" class="st0" width="3.7" height="3.7"/>
		<rect x="455.6" y="216.8" class="st0" width="3.7" height="3.7"/>
		<rect x="460.6" y="216.8" class="st0" width="3.7" height="3.7"/>
		<rect x="534.7" y="157.8" class="st0" width="3.7" height="3.7"/>
		<rect x="537.1" y="194" class="st0" width="3.7" height="3.7"/>
		<polygon class="st0" points="504.7,205.9 507.3,205.9 506.1,202.2 504.7,202.2 		"/>
		<rect x="406.1" y="221.8" class="st0" width="3.7" height="3.7"/>
		<rect x="411" y="221.8" class="st0" width="3.7" height="3.7"/>
		<rect x="416" y="221.8" class="st0" width="3.7" height="3.7"/>
		<rect x="421" y="221.8" class="st0" width="3.7" height="3.7"/>
		<rect x="425.9" y="221.8" class="st0" width="3.7" height="3.7"/>
		<rect x="430.9" y="221.8" class="st0" width="3.7" height="3.7"/>
		<rect x="435.8" y="221.8" class="st0" width="3.7" height="3.7"/>
		<rect x="440.8" y="221.8" class="st0" width="3.7" height="3.7"/>
		<rect x="445.7" y="221.8" class="st0" width="3.7" height="3.7"/>
		<rect x="450.7" y="221.8" class="st0" width="3.7" height="3.7"/>
		<rect x="455.6" y="221.8" class="st0" width="3.7" height="3.7"/>
		<rect x="460.6" y="221.8" class="st0" width="3.7" height="3.7"/>
		<rect x="465.5" y="221.8" class="st0" width="3.7" height="3.7"/>
		<rect x="485.9" y="215.3" class="st0" width="3.7" height="3.7"/>
		<polygon class="st0" points="484.1,228.4 487.8,228.4 487.8,226.8 487.2,224.7 484.1,224.7 		"/>
		<rect x="406.1" y="226.7" class="st0" width="3.7" height="3.7"/>
		<rect x="411" y="226.7" class="st0" width="3.7" height="3.7"/>
		<rect x="416" y="226.7" class="st0" width="3.7" height="3.7"/>
		<rect x="421" y="226.7" class="st0" width="3.7" height="3.7"/>
		<rect x="425.9" y="226.7" class="st0" width="3.7" height="3.7"/>
		<rect x="430.9" y="226.7" class="st0" width="3.7" height="3.7"/>
		<rect x="435.8" y="226.7" class="st0" width="3.7" height="3.7"/>
		<rect x="440.8" y="226.7" class="st0" width="3.7" height="3.7"/>
		<rect x="445.7" y="226.7" class="st0" width="3.7" height="3.7"/>
		<rect x="450.7" y="226.7" class="st0" width="3.7" height="3.7"/>
		<rect x="455.6" y="226.7" class="st0" width="3.7" height="3.7"/>
		<rect x="460.6" y="226.7" class="st0" width="3.7" height="3.7"/>
		<rect x="470.2" y="226.7" class="st0" width="3.7" height="3.7"/>
		<rect x="515.6" y="205.2" class="st0" width="3.7" height="3.7"/>
		<rect x="475.5" y="226.7" class="st0" width="3.7" height="3.7"/>
		<rect x="406.1" y="231.7" class="st0" width="3.7" height="3.7"/>
		<rect x="411" y="231.7" class="st0" width="3.7" height="3.7"/>
		<rect x="416" y="231.7" class="st0" width="3.7" height="3.7"/>
		<rect x="421" y="231.7" class="st0" width="3.7" height="3.7"/>
		<rect x="425.9" y="231.7" class="st0" width="3.7" height="3.7"/>
		<rect x="430.9" y="231.7" class="st0" width="3.7" height="3.7"/>
		<rect x="435.8" y="231.7" class="st0" width="3.7" height="3.7"/>
		<rect x="440.8" y="231.7" class="st0" width="3.7" height="3.7"/>
		<rect x="445.7" y="231.7" class="st0" width="3.7" height="3.7"/>
		<rect x="508.9" y="237.6" class="st0" width="3.7" height="3.7"/>
		<rect x="455.6" y="231.7" class="st0" width="3.7" height="3.7"/>
		<rect x="460.6" y="231.7" class="st0" width="3.7" height="3.7"/>
		<rect x="465.5" y="231.7" class="st0" width="3.7" height="3.7"/>
		<rect x="470.5" y="231.7" class="st0" width="3.7" height="3.7"/>
		<rect x="477.2" y="233.1" class="st0" width="3.7" height="3.7"/>
		<polygon class="st0" points="500.7,224 503.2,224 502,220.3 500.7,220.3 		"/>
		<rect x="406.1" y="236.6" class="st0" width="3.7" height="3.7"/>
		<rect x="411" y="236.6" class="st0" width="3.7" height="3.7"/>
		<rect x="416" y="236.6" class="st0" width="3.7" height="3.7"/>
		<rect x="421" y="236.6" class="st0" width="3.7" height="3.7"/>
		<rect x="425.9" y="236.6" class="st0" width="3.7" height="3.7"/>
		<rect x="430.9" y="236.6" class="st0" width="3.7" height="3.7"/>
		<rect x="435.8" y="236.6" class="st0" width="3.7" height="3.7"/>
		<rect x="440.8" y="236.6" class="st0" width="3.7" height="3.7"/>
		<rect x="445.7" y="236.6" class="st0" width="3.7" height="3.7"/>
		<rect x="450.7" y="236.6" class="st0" width="3.7" height="3.7"/>
		<rect x="455.6" y="236.6" class="st0" width="3.7" height="3.7"/>
		<rect x="460.6" y="236.6" class="st0" width="3.7" height="3.7"/>
		<rect x="465.5" y="236.6" class="st0" width="3.7" height="3.7"/>
		<rect x="472.5" y="238.6" class="st0" width="3.7" height="3.7"/>
		<rect x="549" y="249.5" class="st0" width="3.7" height="3.7"/>
		<polygon class="st0" points="526.5,239.6 530.2,239.6 530.2,238.6 529.3,235.9 526.5,235.9 		"/>
		<rect x="406.1" y="241.6" class="st0" width="3.7" height="3.7"/>
		<rect x="411" y="241.6" class="st0" width="3.7" height="3.7"/>
		<rect x="416" y="241.6" class="st0" width="3.7" height="3.7"/>
		<rect x="421" y="241.6" class="st0" width="3.7" height="3.7"/>
		<rect x="425.9" y="241.6" class="st0" width="3.7" height="3.7"/>
		<rect x="430.9" y="241.6" class="st0" width="3.7" height="3.7"/>
		<rect x="435.8" y="241.6" class="st0" width="3.7" height="3.7"/>
		<rect x="440.8" y="241.6" class="st0" width="3.7" height="3.7"/>
		<rect x="445.7" y="241.6" class="st0" width="3.7" height="3.7"/>
		<rect x="450.7" y="241.6" class="st0" width="3.7" height="3.7"/>
		<rect x="455.6" y="241.6" class="st0" width="3.7" height="3.7"/>
		<rect x="505.2" y="245.3" class="st0" width="3.7" height="3.7"/>
		<rect x="465.5" y="241.6" class="st0" width="3.7" height="3.7"/>
		<rect x="495.5" y="231.7" class="st0" width="3.7" height="3.7"/>
		<rect x="477.7" y="243.3" class="st0" width="3.7" height="3.7"/>
		<rect x="487.3" y="233.4" class="st0" width="3.7" height="3.7"/>
		<rect x="406.1" y="246.5" class="st0" width="3.7" height="3.7"/>
		<rect x="411" y="246.5" class="st0" width="3.7" height="3.7"/>
		<rect x="416" y="246.5" class="st0" width="3.7" height="3.7"/>
		<rect x="421" y="246.5" class="st0" width="3.7" height="3.7"/>
		<rect x="425.9" y="246.5" class="st0" width="3.7" height="3.7"/>
		<rect x="430.9" y="246.5" class="st0" width="3.7" height="3.7"/>
		<rect x="435.8" y="246.5" class="st0" width="3.7" height="3.7"/>
		<rect x="440.8" y="246.5" class="st0" width="3.7" height="3.7"/>
		<rect x="445.7" y="246.5" class="st0" width="3.7" height="3.7"/>
		<rect x="450.7" y="246.5" class="st0" width="3.7" height="3.7"/>
		<rect x="455.6" y="246.5" class="st0" width="3.7" height="3.7"/>
		<rect x="460.6" y="246.5" class="st0" width="3.7" height="3.7"/>
		<rect x="465.5" y="246.5" class="st0" width="3.7" height="3.7"/>
		<rect x="470.5" y="246.5" class="st0" width="3.7" height="3.7"/>
		<rect x="517.1" y="248" class="st0" width="3.7" height="3.7"/>
		<rect x="486.1" y="246.8" class="st0" width="3.7" height="3.7"/>
		<polygon class="st0" points="491.6,247.5 493.8,247.5 492.6,243.8 491.6,243.8 		"/>
		<rect x="406.1" y="251.5" class="st0" width="3.7" height="3.7"/>
		<rect x="411" y="251.5" class="st0" width="3.7" height="3.7"/>
		<rect x="416" y="251.5" class="st0" width="3.7" height="3.7"/>
		<rect x="421" y="251.5" class="st0" width="3.7" height="3.7"/>
		<rect x="425.9" y="251.5" class="st0" width="3.7" height="3.7"/>
		<rect x="430.9" y="251.5" class="st0" width="3.7" height="3.7"/>
		<rect x="435.8" y="251.5" class="st0" width="3.7" height="3.7"/>
		<rect x="440.8" y="251.5" class="st0" width="3.7" height="3.7"/>
		<rect x="445.7" y="251.5" class="st0" width="3.7" height="3.7"/>
		<rect x="450.7" y="251.5" class="st0" width="3.7" height="3.7"/>
		<rect x="455.6" y="251.5" class="st0" width="3.7" height="3.7"/>
		<rect x="534.9" y="235.1" class="st0" width="3.7" height="3.7"/>
		<rect x="465.5" y="251.5" class="st0" width="3.7" height="3.7"/>
		<rect x="473.2" y="251.7" class="st0" width="3.7" height="3.7"/>
		<rect x="507.7" y="260.6" class="st0" width="3.7" height="3.7"/>
		<polygon class="st0" points="490.1,256.4 490.1,260.1 491.9,260.1 493.8,259.5 493.8,256.4 		"/>
		<polygon class="st0" points="531.4,255.8 534.5,254.7 534.1,253.2 531.4,253.2 		"/>
		<rect x="406.1" y="256.4" class="st0" width="3.7" height="3.7"/>
		<rect x="411" y="256.4" class="st0" width="3.7" height="3.7"/>
		<rect x="416" y="256.4" class="st0" width="3.7" height="3.7"/>
		<rect x="421" y="256.4" class="st0" width="3.7" height="3.7"/>
		<rect x="425.9" y="256.4" class="st0" width="3.7" height="3.7"/>
		<rect x="430.9" y="256.4" class="st0" width="3.7" height="3.7"/>
		<rect x="435.8" y="256.4" class="st0" width="3.7" height="3.7"/>
		<rect x="440.8" y="256.4" class="st0" width="3.7" height="3.7"/>
		<rect x="445.7" y="256.4" class="st0" width="3.7" height="3.7"/>
		<rect x="450.7" y="256.4" class="st0" width="3.7" height="3.7"/>
		<rect x="455.6" y="256.4" class="st0" width="3.7" height="3.7"/>
		<rect x="460.6" y="256.4" class="st0" width="3.7" height="3.7"/>
		<polygon class="st0" points="465.5,256.4 465.5,260.1 468.2,260.1 469.3,259.8 469.3,256.4 		"/>
		<polygon class="st0" points="473.2,257.7 473.2,260.6 476.9,259.3 476.9,257.7 		"/>
		<polygon class="st0" points="481,260.4 484.3,259.3 481,259.3 		"/>
		<rect x="406.1" y="261.4" class="st0" width="3.7" height="3.7"/>
		<rect x="411" y="261.4" class="st0" width="3.7" height="3.7"/>
		<rect x="416" y="261.4" class="st0" width="3.7" height="3.7"/>
		<rect x="421" y="261.4" class="st0" width="3.7" height="3.7"/>
		<rect x="425.9" y="261.4" class="st0" width="3.7" height="3.7"/>
		<rect x="430.9" y="261.4" class="st0" width="3.7" height="3.7"/>
		<rect x="435.8" y="261.4" class="st0" width="3.7" height="3.7"/>
		<rect x="440.8" y="261.4" class="st0" width="3.7" height="3.7"/>
		<rect x="445.7" y="261.4" class="st0" width="3.7" height="3.7"/>
		<polygon class="st0" points="450.7,261.4 450.7,265.1 454.2,265.1 454.4,265 454.4,261.4 		"/>
		<polygon class="st0" points="455.6,261.4 455.6,264.6 459.4,263.3 459.4,261.4 		"/>
		<polygon class="st0" points="460.6,261.4 460.6,262.8 464.3,261.5 464.3,261.4 		"/>
		<rect x="406.1" y="266.3" class="st0" width="3.7" height="3.7"/>
		<rect x="411" y="266.3" class="st0" width="3.7" height="3.7"/>
		<rect x="416" y="266.3" class="st0" width="3.7" height="3.7"/>
		<rect x="421" y="266.3" class="st0" width="3.7" height="3.7"/>
		<polygon class="st0" points="425.9,266.3 425.9,270.1 428.7,270.1 429.6,269.2 429.6,266.3 		"/>
		<path class="st0" d="M430.9,266.3v1.8c1.2-0.9,2.5-1.4,3.7-1.6v-0.3H430.9z"/>
		<path class="st0" d="M435.8,266.3v0.2c1.2,0,2.5,0.4,3.7,1.1v-1.2H435.8z"/>
		<path class="st0" d="M440.8,266.3v2c0.4,0.3,0.9,0.7,1.3,1l2.4-0.9v-2.2H440.8z"/>
		<polygon class="st0" points="445.7,266.3 445.7,268.1 449.4,266.8 449.4,266.3 		"/>
		<polygon class="st0" points="450.7,266.4 450.7,266.3 450.7,266.3 		"/>
		<polygon class="st0" points="406.1,274.1 409.3,271.3 406.1,271.3 		"/>
		<path class="st0" d="M417.3,271.3c0.8,0.5,1.6,1.1,2.4,1.9v-1.9H417.3z"/>
		<path class="st0" d="M421,271.3v3.2c0.1,0.2,0.3,0.3,0.4,0.5h2c0.4-0.5,0.8-1,1.3-1.5v-2.2H421z"/>
		<polygon class="st0" points="425.9,272.5 427.2,271.3 425.9,271.3 		"/>
		<path class="st0" d="M422.5,276.6c0.1-0.1,0.1-0.2,0.2-0.3h-0.4C422.3,276.3,422.4,276.5,422.5,276.6z"/>
		<path class="st0" d="M355.3,225.5v-2.9c-0.1,0.1-0.2,0.2-0.3,0.2l-3.4,2.6v0H355.3z"/>
		<polygon class="st0" points="345.4,230.3 345.2,230.4 345.4,230.4 		"/>
		<polygon class="st0" points="350.4,230.4 350.4,226.7 350,226.7 346.6,229.3 346.6,230.4 		"/>
		<rect x="351.6" y="226.7" class="st0" width="3.7" height="3.7"/>
		<polygon class="st0" points="340.5,234.2 338.9,235.4 340.5,235.4 		"/>
		<polygon class="st0" points="345.4,235.4 345.4,231.7 343.7,231.7 341.7,233.2 341.7,235.4 		"/>
		<rect x="346.6" y="231.7" class="st0" width="3.7" height="3.7"/>
		<rect x="351.6" y="231.7" class="st0" width="3.7" height="3.7"/>
		<polygon class="st0" points="335.5,238.1 332.6,240.3 335.5,240.3 		"/>
		<polygon class="st0" points="340.5,240.3 340.5,236.6 337.4,236.6 336.7,237.1 336.7,240.3 		"/>
		<rect x="341.7" y="236.6" class="st0" width="3.7" height="3.7"/>
		<rect x="346.6" y="236.6" class="st0" width="3.7" height="3.7"/>
		<rect x="351.6" y="236.6" class="st0" width="3.7" height="3.7"/>
		<polygon class="st0" points="330.5,245.3 330.5,242 326.8,244.9 326.8,245.3 		"/>
		<rect x="331.8" y="241.6" class="st0" width="3.7" height="3.7"/>
		<rect x="336.7" y="241.6" class="st0" width="3.7" height="3.7"/>
		<rect x="341.7" y="241.6" class="st0" width="3.7" height="3.7"/>
		<rect x="346.6" y="241.6" class="st0" width="3.7" height="3.7"/>
		<rect x="351.6" y="241.6" class="st0" width="3.7" height="3.7"/>
		<polygon class="st0" points="320.6,249.8 320,250.2 320.6,250.2 		"/>
		<polygon class="st0" points="325.6,250.2 325.6,246.5 324.8,246.5 321.9,248.8 321.9,250.2 		"/>
		<rect x="326.8" y="246.5" class="st0" width="3.7" height="3.7"/>
		<rect x="331.8" y="246.5" class="st0" width="3.7" height="3.7"/>
		<rect x="336.7" y="246.5" class="st0" width="3.7" height="3.7"/>
		<rect x="341.7" y="246.5" class="st0" width="3.7" height="3.7"/>
		<rect x="346.6" y="246.5" class="st0" width="3.7" height="3.7"/>
		<rect x="351.6" y="246.5" class="st0" width="3.7" height="3.7"/>
		<polygon class="st0" points="315.7,253.7 313.7,255.2 315.7,255.2 		"/>
		<polygon class="st0" points="320.6,255.2 320.6,251.5 318.5,251.5 316.9,252.7 316.9,255.2 		"/>
		<rect x="321.9" y="251.5" class="st0" width="3.7" height="3.7"/>
		<rect x="326.8" y="251.5" class="st0" width="3.7" height="3.7"/>
		<rect x="331.8" y="251.5" class="st0" width="3.7" height="3.7"/>
		<rect x="336.7" y="251.5" class="st0" width="3.7" height="3.7"/>
		<rect x="341.7" y="251.5" class="st0" width="3.7" height="3.7"/>
		<rect x="346.6" y="251.5" class="st0" width="3.7" height="3.7"/>
		<rect x="351.6" y="251.5" class="st0" width="3.7" height="3.7"/>
		<polygon class="st0" points="310.7,257.6 307.4,260.1 310.7,260.1 		"/>
		<polygon class="st0" points="315.7,260.1 315.7,256.4 312.2,256.4 312,256.6 312,260.1 		"/>
		<rect x="316.9" y="256.4" class="st0" width="3.7" height="3.7"/>
		<rect x="321.9" y="256.4" class="st0" width="3.7" height="3.7"/>
		<rect x="326.8" y="256.4" class="st0" width="3.7" height="3.7"/>
		<rect x="331.8" y="256.4" class="st0" width="3.7" height="3.7"/>
		<path class="st0" d="M340.5,256.4h-3.7v3.5c0.7-0.2,1.4-0.1,1.8,0.3h1.9V256.4z"/>
		<rect x="341.7" y="256.4" class="st0" width="3.7" height="3.7"/>
		<rect x="346.6" y="256.4" class="st0" width="3.7" height="3.7"/>
		<rect x="351.6" y="256.4" class="st0" width="3.7" height="3.7"/>
		<polygon class="st0" points="305.8,265.1 305.8,261.4 302.1,264.4 302.1,265.1 		"/>
		<rect x="307" y="261.4" class="st0" width="3.7" height="3.7"/>
		<rect x="312" y="261.4" class="st0" width="3.7" height="3.7"/>
		<rect x="316.9" y="261.4" class="st0" width="3.7" height="3.7"/>
		<rect x="321.9" y="261.4" class="st0" width="3.7" height="3.7"/>
		<polygon class="st0" points="326.8,261.4 326.8,265.1 329.5,265.1 330.5,264.3 330.5,261.4 		"/>
		<polygon class="st0" points="331.8,263.4 334.5,261.4 331.8,261.4 		"/>
		<path class="st0" d="M340.5,265.1v-3.7h-1.4c0,0.7-0.3,1.4-1.2,2.1l-1.2,0.9v0.7H340.5z"/>
		<rect x="341.7" y="261.4" class="st0" width="3.7" height="3.7"/>
		<rect x="346.6" y="261.4" class="st0" width="3.7" height="3.7"/>
		<rect x="351.6" y="261.4" class="st0" width="3.7" height="3.7"/>
		<polygon class="st0" points="295.9,269.2 294.8,270.1 295.9,270.1 		"/>
		<polygon class="st0" points="300.8,270.1 300.8,266.3 299.6,266.3 297.1,268.3 297.1,270.1 		"/>
		<rect x="302.1" y="266.3" class="st0" width="3.7" height="3.7"/>
		<rect x="307" y="266.3" class="st0" width="3.7" height="3.7"/>
		<rect x="312" y="266.3" class="st0" width="3.7" height="3.7"/>
		<rect x="316.9" y="266.3" class="st0" width="3.7" height="3.7"/>
		<polygon class="st0" points="321.9,266.3 321.9,270.1 322.8,270.1 325.6,268 325.6,266.3 		"/>
		<polygon class="st0" points="330.5,269.2 329.5,270.1 330.5,270.1 		"/>
		<polygon class="st0" points="326.8,267.1 327.8,266.3 326.8,266.3 		"/>
		<polygon class="st0" points="335.5,270.1 335.5,266.3 334.3,266.3 331.8,268.3 331.8,270.1 		"/>
		<rect x="336.7" y="266.3" class="st0" width="3.7" height="3.7"/>
		<rect x="341.7" y="266.3" class="st0" width="3.7" height="3.7"/>
		<rect x="346.6" y="266.3" class="st0" width="3.7" height="3.7"/>
		<rect x="351.6" y="266.3" class="st0" width="3.7" height="3.7"/>
		<path class="st0" d="M290.9,273.1l-0.6,0.5c-0.5,0.5-0.8,0.9-1,1.4h1.7V273.1z"/>
		<polygon class="st0" points="295.9,275 295.9,271.3 293.3,271.3 292.2,272.2 292.2,275 		"/>
		<rect x="297.1" y="271.3" class="st0" width="3.7" height="3.7"/>
		<rect x="302.1" y="271.3" class="st0" width="3.7" height="3.7"/>
		<rect x="307" y="271.3" class="st0" width="3.7" height="3.7"/>
		<rect x="312" y="271.3" class="st0" width="3.7" height="3.7"/>
		<polygon class="st0" points="316.9,271.3 316.9,274.5 320.6,271.7 320.6,271.3 		"/>
		<polygon class="st0" points="325.6,273.1 323.1,275 325.6,275 		"/>
		<polygon class="st0" points="330.5,275 330.5,271.3 327.9,271.3 326.8,272.1 326.8,275 		"/>
		<rect x="331.8" y="271.3" class="st0" width="3.7" height="3.7"/>
		<rect x="336.7" y="271.3" class="st0" width="3.7" height="3.7"/>
		<rect x="341.7" y="271.3" class="st0" width="3.7" height="3.7"/>
		<rect x="346.6" y="271.3" class="st0" width="3.7" height="3.7"/>
		<rect x="351.6" y="271.3" class="st0" width="3.7" height="3.7"/>
		<path class="st0" d="M290.9,276.2h-2c-0.1,1.1,0.3,2.2,1.2,3.3l0.5,0.5h0.4V276.2z"/>
		<rect x="292.2" y="276.2" class="st0" width="3.7" height="3.7"/>
		<rect x="297.1" y="276.2" class="st0" width="3.7" height="3.7"/>
		<rect x="302.1" y="276.2" class="st0" width="3.7" height="3.7"/>
		<polygon class="st0" points="307,276.2 307,280 309.5,280 310.7,279.1 310.7,276.2 		"/>
		<polygon class="st0" points="312,278.2 314.5,276.2 312,276.2 		"/>
		<polygon class="st0" points="320.6,280 320.6,276.9 316.9,279.8 316.9,280 		"/>
		<rect x="321.9" y="276.2" class="st0" width="3.7" height="3.7"/>
		<rect x="326.8" y="276.2" class="st0" width="3.7" height="3.7"/>
		<rect x="331.8" y="276.2" class="st0" width="3.7" height="3.7"/>
		<rect x="336.7" y="276.2" class="st0" width="3.7" height="3.7"/>
		<path class="st0" d="M341.7,276.2v3.7h2.3l0.7-0.5c0.2-0.2,0.4-0.3,0.6-0.5v-2.7H341.7z"/>
		<path class="st0" d="M350.4,276.2h-3.7v2.4c0.9,0,1.6,0.6,2,1.3h1.8V276.2z"/>
		<rect x="351.6" y="276.2" class="st0" width="3.7" height="3.7"/>
		<path class="st0" d="M292.2,281.2v0.2l3.1,2.7c0.2,0.2,0.4,0.3,0.7,0.5v-3.4H292.2z"/>
		<rect x="297.1" y="281.2" class="st0" width="3.7" height="3.7"/>
		<path class="st0" d="M302.1,281.2v3.7h0.8c0.2-0.1,0.4-0.2,0.6-0.4l2.4-1.8v-1.6H302.1z"/>
		<polygon class="st0" points="310.7,284.6 310.3,284.9 310.7,284.9 		"/>
		<polygon class="st0" points="307,281.8 307.9,281.2 307,281.2 		"/>
		<polygon class="st0" points="315.7,284.9 315.7,281.2 315.1,281.2 312,283.6 312,284.9 		"/>
		<rect x="316.9" y="281.2" class="st0" width="3.7" height="3.7"/>
		<rect x="321.9" y="281.2" class="st0" width="3.7" height="3.7"/>
		<rect x="326.8" y="281.2" class="st0" width="3.7" height="3.7"/>
		<rect x="331.8" y="281.2" class="st0" width="3.7" height="3.7"/>
		<polygon class="st0" points="336.7,281.2 336.7,284.9 337.4,284.9 340.5,282.6 340.5,281.2 		"/>
		<polygon class="st0" points="345.4,284.6 344.9,284.9 345.4,284.9 		"/>
		<polygon class="st0" points="341.7,281.7 342.4,281.2 341.7,281.2 		"/>
		<path class="st0" d="M350.4,284.9v-3.7h-1.6c-0.1,0.6-0.4,1.1-1,1.7l-1.1,0.8v1.3H350.4z"/>
		<rect x="351.6" y="281.2" class="st0" width="3.7" height="3.7"/>
		<path class="st0" d="M310.7,286.2h-1.6c-0.8,1.2-0.9,2.4,0,3.7h1.6V286.2z"/>
		<rect x="312" y="286.2" class="st0" width="3.7" height="3.7"/>
		<rect x="316.9" y="286.2" class="st0" width="3.7" height="3.7"/>
		<rect x="321.9" y="286.2" class="st0" width="3.7" height="3.7"/>
		<rect x="326.8" y="286.2" class="st0" width="3.7" height="3.7"/>
		<polygon class="st0" points="331.8,286.2 331.8,289.1 335.5,286.3 335.5,286.2 		"/>
		<polygon class="st0" points="340.5,288.3 338.3,289.9 340.5,289.9 		"/>
		<polygon class="st0" points="345.4,289.9 345.4,286.2 343.3,286.2 341.7,287.3 341.7,289.9 		"/>
		<rect x="346.6" y="286.2" class="st0" width="3.7" height="3.7"/>
		<rect x="351.6" y="286.2" class="st0" width="3.7" height="3.7"/>
		<polygon class="st0" points="310.3,291.1 310.7,291.5 310.7,291.1 		"/>
		<polygon class="st0" points="315.7,291.1 312,291.1 312,292.4 315.1,294.8 315.7,294.8 		"/>
		<rect x="316.9" y="291.1" class="st0" width="3.7" height="3.7"/>
		<polygon class="st0" points="321.9,291.1 321.9,294.8 324.2,294.8 325.6,293.8 325.6,291.1 		"/>
		<polygon class="st0" points="326.8,292.8 329.1,291.1 326.8,291.1 		"/>
		<polygon class="st0" points="335.5,294.8 335.5,292 331.8,294.7 331.8,294.8 		"/>
		<rect x="336.7" y="291.1" class="st0" width="3.7" height="3.7"/>
		<rect x="341.7" y="291.1" class="st0" width="3.7" height="3.7"/>
		<rect x="346.6" y="291.1" class="st0" width="3.7" height="3.7"/>
		<rect x="351.6" y="291.1" class="st0" width="3.7" height="3.7"/>
		<path class="st0" d="M317.3,296.1c1.1,0.4,2.2,0.5,3.3,0.4v-0.4H317.3z"/>
		<path class="st0" d="M321.9,296.1c0,0,0.1,0,0.1,0L321.9,296.1L321.9,296.1z"/>
		<path class="st0" d="M330.5,296.1H330l-1,0.8c-1,0.7-1.6,1.8-1.6,2.9h3.2V296.1z"/>
		<rect x="331.8" y="296.1" class="st0" width="3.7" height="3.7"/>
		<rect x="336.7" y="296.1" class="st0" width="3.7" height="3.7"/>
		<rect x="341.7" y="296.1" class="st0" width="3.7" height="3.7"/>
		<rect x="346.6" y="296.1" class="st0" width="3.7" height="3.7"/>
		<path class="st0" d="M351.6,296.1v3.1l3.4-2.7c0.1-0.1,0.2-0.1,0.3-0.2v-0.2H351.6z"/>
		<path class="st0" d="M327.6,301c0.2,0.4,0.4,0.8,0.8,1.2l2.1,1.6V301H327.6z"/>
		<rect x="331.8" y="301" class="st0" width="3.7" height="3.7"/>
		<rect x="336.7" y="301" class="st0" width="3.7" height="3.7"/>
		<polygon class="st0" points="341.7,301 341.7,304.7 344.5,304.7 345.4,304 345.4,301 		"/>
		<polygon class="st0" points="346.6,303 349.2,301 346.6,301 		"/>
		<polygon class="st0" points="355.3,302.1 352,304.7 355.3,304.7 		"/>
		<path class="st0" d="M333.2,306l1.6,1.3c0.2,0.1,0.5,0.2,0.7,0.3V306H333.2z"/>
		<path class="st0" d="M336.7,306v2c1.2,0.2,2.4,0.1,3.7-0.5V306H336.7z"/>
		<path class="st0" d="M341.7,306.9c0.1,0,0.1-0.1,0.2-0.1l1-0.8h-1.2V306.9z"/>
		<path class="st0" d="M350.4,306l-2.1,1.7c-0.8,0.6-1.3,1.3-1.4,2h3.5V306z"/>
		<rect x="351.6" y="306" class="st0" width="3.7" height="3.7"/>
		<path class="st0" d="M347,310.9c0.2,0.4,0.5,0.8,0.9,1.2l2.5,2.1v-3.3H347z"/>
		<rect x="351.6" y="310.9" class="st0" width="3.7" height="3.7"/>
		<path class="st0" d="M352.4,315.9c0.9,0.5,1.9,0.9,2.9,1.1v-1.1H352.4z"/>
	</g>
	<g>
		<polygon class="st0" points="190.4,157.1 186.4,155.6 184.2,163.5 190.4,163.5 		"/>
		<polygon class="st0" points="239.7,167.1 239.7,164.4 229.5,160.7 229.5,167.1 		"/>
		<polygon class="st0" points="346.1,195.5 339,199.6 346.1,199.6 		"/>
		<path class="st0" d="M356.4,199.6v-8.2c-1.9-0.2-3.7,0.2-5.5,1.3l-4.8,2.7v4.1H356.4z"/>
		<path class="st0" d="M366.6,199.6v-3.8c-2.2-1.1-4.5-2.2-7.1-3.5c-1-0.4-2.1-0.7-3.1-0.8v8.2H366.6z"/>
		<path class="st0" d="M374,199.6c-2.2-1.2-4.6-2.4-7.4-3.8v3.8H374z"/>
		<polygon class="st0" points="197.3,183.3 191.2,183.3 188.3,193.5 197.3,193.5 		"/>
		<rect x="255.4" y="178.7" class="st0" width="10.2" height="10.2"/>
		<polygon class="st0" points="266.2,204.8 276.5,204.8 276.4,195.6 273.4,194.6 266.2,194.6 		"/>
		<polygon class="st0" points="294,207.4 294,202 283.8,198.2 283.8,207.4 		"/>
		<polygon class="st0" points="305.2,209.9 305.2,208.2 295,204.5 295,209.9 		"/>
		<polygon class="st0" points="309.7,209.9 305.2,208.2 305.2,209.9 		"/>
		<polygon class="st0" points="325.7,207.3 321.2,209.9 325.7,209.9 		"/>
		<polygon class="st0" points="335.9,209.9 335.9,201.4 325.7,207.3 325.7,209.9 		"/>
		<polygon class="st0" points="346.1,209.9 346.1,199.6 339,199.6 335.9,201.4 335.9,209.9 		"/>
		<rect x="346.1" y="199.6" class="st0" width="10.2" height="10.2"/>
		<rect x="356.4" y="199.6" class="st0" width="10.2" height="10.2"/>
		<path class="st0" d="M366.6,209.9h10.2v-8.7c-0.9-0.5-1.8-1-2.9-1.6h-7.4V209.9z"/>
		<path class="st0" d="M384.5,209.9l-2.7-4.2c-1.3-2.3-2.7-3.2-4.3-4.1c-0.2-0.1-0.5-0.3-0.7-0.4v8.7H384.5z"/>
		<polygon class="st0" points="223.7,192.7 223.7,182.4 214.7,182.4 213.5,186.6 213.5,192.7 		"/>
		<rect x="205.3" y="213.3" class="st0" width="10.2" height="10.2"/>
		<rect x="272.4" y="207.2" class="st0" width="10.2" height="10.2"/>
		<rect x="284.8" y="209.9" class="st0" width="10.2" height="10.2"/>
		<rect x="295" y="209.9" class="st0" width="10.2" height="10.2"/>
		<path class="st0" d="M305.2,220.1h10.2v-8.8c-1.7,0-3.5-0.4-5.2-1.2l-0.6-0.2h-4.5V220.1z"/>
		<path class="st0" d="M325.7,220.1v-10.2h-4.5l-0.2,0.1c-1.7,0.9-3.6,1.3-5.5,1.2v8.8H325.7z"/>
		<rect x="325.7" y="209.9" class="st0" width="10.2" height="10.2"/>
		<rect x="335.9" y="209.9" class="st0" width="10.2" height="10.2"/>
		<path class="st0" d="M346.1,209.9v10.2h4.7l3.4-2.7c0.6-0.4,1.3-0.6,2.1-0.8v-6.7H346.1z"/>
		<path class="st0" d="M356.4,209.9v6.7c2.9-0.7,6.9-0.5,10.2,0.8v-7.5H356.4z"/>
		<path class="st0" d="M376.8,209.9h-10.2v7.5c1.7,0.6,3.3,1.6,4.4,2.7h5.9V209.9z"/>
		<polygon class="st0" points="376.8,220.1 387,220.1 387,213.9 384.5,209.9 376.8,209.9 		"/>
		<polygon class="st0" points="391,220.1 387,213.9 387,220.1 		"/>
		<polygon class="st0" points="170.9,234.5 169.2,234.5 166.3,244.7 170.9,244.7 		"/>
		<rect x="209.5" y="232.8" class="st0" width="10.2" height="10.2"/>
		<rect x="248.7" y="204.1" class="st0" width="10.2" height="10.2"/>
		<rect x="274.6" y="220.1" class="st0" width="10.2" height="10.2"/>
		<rect x="161.1" y="200.3" class="st0" width="10.2" height="10.2"/>
		<rect x="295" y="220.1" class="st0" width="10.2" height="10.2"/>
		<rect x="305.2" y="220.1" class="st0" width="10.2" height="10.2"/>
		<rect x="315.5" y="220.1" class="st0" width="10.2" height="10.2"/>
		<rect x="325.7" y="220.1" class="st0" width="10.2" height="10.2"/>
		<polygon class="st0" points="335.9,220.1 335.9,230.3 338,230.3 346.1,223.8 346.1,220.1 		"/>
		<polygon class="st0" points="346.1,223.8 350.9,220.1 346.1,220.1 		"/>
		<path class="st0" d="M371,220.1c0.3,0.3,0.5,0.5,0.7,0.8l5.2,7.9v-8.7H371z"/>
		<polygon class="st0" points="387,220.1 376.8,220.1 376.8,228.8 377.8,230.3 387,230.3 		"/>
		<path class="st0" d="M387,230.3h5.9c1.9-2.4,1.8-4.7-0.1-7.4l-1.8-2.8h-4V230.3z"/>
		<polygon class="st0" points="200.1,217.3 195.5,217.3 192.6,227.5 200.1,227.5 		"/>
		<rect x="241.6" y="222.2" class="st0" width="10.2" height="10.2"/>
		<rect x="262.2" y="227.8" class="st0" width="10.2" height="10.2"/>
		<rect x="274.6" y="230.3" class="st0" width="10.2" height="10.2"/>
		<rect x="284.8" y="230.3" class="st0" width="10.2" height="10.2"/>
		<rect x="295" y="230.3" class="st0" width="10.2" height="10.2"/>
		<rect x="305.2" y="230.3" class="st0" width="10.2" height="10.2"/>
		<polygon class="st0" points="315.5,230.3 315.5,240.5 325,240.5 325.7,240 325.7,230.3 		"/>
		<polygon class="st0" points="325.7,230.3 325.7,240 335.9,231.9 335.9,230.3 		"/>
		<polygon class="st0" points="335.9,231.9 338,230.3 335.9,230.3 		"/>
		<path class="st0" d="M377.8,230.3l2.5,3.8c1.8,2.8,3.9,2.9,6.3,1l0.5-0.4v-4.3H377.8z"/>
		<path class="st0" d="M387,234.7l5.6-4c0.1-0.1,0.2-0.2,0.2-0.3H387V234.7z"/>
		<polygon class="st0" points="237.6,244.2 237.6,234 230.1,234 227.4,243.7 227.4,244.2 		"/>
		<rect x="250.8" y="240.2" class="st0" width="10.2" height="10.2"/>
		<rect x="264.3" y="240.5" class="st0" width="10.2" height="10.2"/>
		<rect x="274.6" y="240.5" class="st0" width="10.2" height="10.2"/>
		<rect x="284.8" y="240.5" class="st0" width="10.2" height="10.2"/>
		<rect x="295" y="240.5" class="st0" width="10.2" height="10.2"/>
		<polygon class="st0" points="305.2,240.5 305.2,250.8 312.1,250.8 315.5,248.1 315.5,240.5 		"/>
		<polygon class="st0" points="315.5,248.1 325,240.5 315.5,240.5 		"/>
		<polygon class="st0" points="188.5,247.8 188.5,253.1 198.7,256.2 198.7,247.8 		"/>
		<polygon class="st0" points="242.7,250.7 232.5,250.7 232.5,259.2 238.3,260.9 242.7,260.9 		"/>
		<rect x="262.8" y="251.4" class="st0" width="10.2" height="10.2"/>
		<rect x="235.6" y="196.6" class="st0" width="10.2" height="10.2"/>
		<rect x="284.8" y="250.8" class="st0" width="10.2" height="10.2"/>
		<polygon class="st0" points="295,250.8 295,261 299.2,261 305.2,256.2 305.2,250.8 		"/>
		<polygon class="st0" points="305.2,256.2 312.1,250.8 305.2,250.8 		"/>
		<polygon class="st0" points="260.5,265 260.5,266.3 270.8,269.4 270.8,265 		"/>
		<polygon class="st0" points="274.6,261 274.6,265.5 284.8,268.6 284.8,261 		"/>
		<polygon class="st0" points="284.8,261 284.8,268.6 288.3,269.6 295,264.3 295,261 		"/>
		<polygon class="st0" points="295,264.3 299.2,261 295,261 		"/>
		<g>
			<path class="st0" d="M435,271.2h1.8C436.2,271,435.5,271,435,271.2z"/>
			<path class="st0" d="M428,276.9l-0.8,0.7c-1.1,0.9-1.5,2.5-1.1,3.8h1.9V276.9z"/>
			<path class="st0" d="M436.8,271.2H435c-0.4,0.1-0.8,0.3-1.2,0.7l-5.8,5v4.5h9.4l0.9-0.8v-8.6
				C437.8,271.7,437.3,271.4,436.8,271.2z"/>
			<path class="st0" d="M438.5,272.4c-0.1-0.1-0.2-0.2-0.3-0.4v8.6l1.3-1.2c1.4-1.3,1.7-3.5,0.5-5.1L438.5,272.4z"/>
			<path class="st0" d="M426.1,281.4c0.1,0.4,0.3,0.9,0.6,1.2l1.3,1.7v-2.9H426.1z"/>
			<path class="st0" d="M428,284.4l0.3,0.3c1.2,1.5,3.3,1.8,4.7,0.5l4.3-3.8H428V284.4z"/>
		</g>
		<g>
			<path class="st0" d="M407.5,279.2l-2.4,2.1c0,0-0.1,0.1-0.1,0.1h2.5V279.2z"/>
			<path class="st0" d="M417.7,281.4V278l-1.4-1.8c-1.2-1.5-3.3-1.8-4.7-0.5l-4.1,3.6v2.2H417.7z"/>
			<polygon class="st0" points="417.7,281.4 420.4,281.4 417.7,278 			"/>
			<path class="st0" d="M405,281.4c-1.3,1.3-1.5,3.5-0.4,5l2.9,3.9v-8.9H405z"/>
			<polygon class="st0" points="417.7,281.4 407.5,281.4 407.5,290.3 408.5,291.7 417.7,291.7 			"/>
			<path class="st0" d="M417.7,291.7h2.1l2.4-2.1c1.4-1.3,1.7-3.5,0.5-5.1l-2.3-3.1h-2.6V291.7z"/>
			<path class="st0" d="M408.5,291.7l2.4,3.1c1.2,1.5,3.3,1.8,4.7,0.5l2.1-1.8v-1.8H408.5z"/>
			<polygon class="st0" points="417.7,293.5 419.8,291.7 417.7,291.7 			"/>
		</g>
		<g>
			<path class="st0" d="M387,289.5l-0.7,0.6c-0.5,0.4-0.8,0.9-1,1.5h1.7V289.5z"/>
			<path class="st0" d="M397.3,291.7v-7.1c-1.2-1.1-3.1-1.2-4.4-0.1l-5.9,5.1v2.1H397.3z"/>
			<path class="st0" d="M397.3,284.5v7.1h5.5l-5.1-6.7C397.5,284.8,397.4,284.7,397.3,284.5z"/>
			<path class="st0" d="M385.3,291.7c-0.4,1.2-0.3,2.5,0.5,3.6l1.2,1.6v-5.1H385.3z"/>
			<polygon class="st0" points="397.3,291.7 387,291.7 387,296.8 390.9,301.9 397.3,301.9 			"/>
			<path class="st0" d="M397.3,301.9h8.4l0.3-0.2c1.4-1.3,1.7-3.5,0.5-5.1l-3.7-4.9h-5.5V301.9z"/>
			<path class="st0" d="M390.9,301.9l3.7,4.9c0.7,0.9,1.6,1.3,2.6,1.3v-6.3H390.9z"/>
			<path class="st0" d="M397.3,308.2c0.7,0,1.5-0.3,2.1-0.8l6.3-5.5h-8.4V308.2z"/>
		</g>
		<g>
			<polygon class="st0" points="376.8,301.1 375.9,301.9 376.8,301.9 			"/>
			<path class="st0" d="M385.3,301.9l-1.6-2.2c-1.2-1.5-3.3-1.8-4.7-0.5l-2.1,1.9v0.8H385.3z"/>
			<path class="st0" d="M376.8,301.9h-1l-3.5,3c-1.4,1.3-1.7,3.5-0.5,5.1l1.6,2.1h3.3V301.9z"/>
			<polygon class="st0" points="376.8,312.1 387,312.1 387,304.2 385.3,301.9 376.8,301.9 			"/>
			<path class="st0" d="M388.4,312.1l0.2-0.2c1.4-1.3,1.7-3.5,0.5-5.1l-2-2.7v8H388.4z"/>
			<polygon class="st0" points="376.8,312.1 373.5,312.1 376.8,316.5 			"/>
			<path class="st0" d="M376.8,312.1v4.4l0.5,0.6c1.2,1.5,3.3,1.8,4.7,0.5l5-4.4v-1.2H376.8z"/>
			<polygon class="st0" points="387,313.3 388.4,312.1 387,312.1 			"/>
		</g>
	</g>
</g>
</svg>
