<?xml version="1.0" encoding="utf-8"?>
<!-- Generator: Adobe Illustrator 19.2.1, SVG Export Plug-In . SVG Version: 6.00 Build 0)  -->
<svg version="1.1" id="_x2014_ÎÓÈ_x5F_1" xmlns="http://www.w3.org/2000/svg" xmlns:xlink="http://www.w3.org/1999/xlink"
	 x="0px" y="0px" viewBox="0 0 850.4 850.4" style="enable-background:new 0 0 850.4 850.4;" xml:space="preserve">
<style type="text/css">
	.st0{fill:#D2D3D4;}
</style>
<g>
	<g>
		<path class="st0" d="M373.2,477.5c-6.8,4.5-14,8.8-21.6,13c2.5-1.4,10-5.9,20.3-13.4C372.3,477.2,372.8,477.4,373.2,477.5z"/>
		<g>
			<path class="st0" d="M575.5,386l8.9,5.7c-34.1,41.8-74.7,66.3-112.4,80.6c-6.6-5.1-13.9-11.3-21.7-18.5
				c74.6-44.4,101.9-107.5,107.1-121.3l9.7,2.8l-7.8-31l-22.9,22.2l10.2,2.9c-24.2,57.8-63.4,95.8-100.5,120.3
				c-5.7-5.5-11.5-11.6-17.3-18.2c62.8-66.6,70.1-138.9,70.9-154.1l10-0.3l-16.8-27.2l-15.1,28.1l10.6-0.3
				c-5.8,65.2-33.8,114.8-63.1,149.6c-29.3-34.8-57.3-84.4-63.1-149.6l10.6,0.3l-15.1-28.1l-16.8,27.2l10,0.3
				c0.8,15.2,8.1,87.5,70.9,154.1c-5.8,6.6-11.6,12.7-17.3,18.2c-37.1-24.5-76.3-62.4-100.5-120.3l10.2-2.9l-22.9-22.2l-7.8,31
				l9.7-2.8c5.2,13.8,32.5,76.9,107.1,121.3c-7.7,7.2-15.1,13.4-21.7,18.5c-37.7-14.3-78.3-38.8-112.4-80.6l8.9-5.7l-28.3-14.8
				l1.3,31.9l8.5-5.4c8.2,10.7,45.4,55.4,115.5,79.4c0.4,0.1,0.8,0.3,1.3,0.4c3.6,1.2,7.3,2.4,11,3.5c-16.8,6.3-28.9,9.1-32.5,9.8
				c12.5-2.5,24.2-5.5,35.3-9c8.3,2.3,17,4.3,26.1,6c-32.4,5.2-56.3,3.8-61.4,3.4c26.8,2.4,51.3,1.6,73.5-1.5c0,0,0,0,0,0
				c22.2,3,46.7,3.9,73.5,1.5c-5.2,0.4-29,1.8-61.4-3.4c9.1-1.6,17.8-3.7,26.1-6h0c11.1,3.5,22.8,6.5,35.3,9
				c-3.5-0.8-15.6-3.6-32.5-9.8c3.8-1.1,7.4-2.2,11-3.5c6.8,4.5,14,8.8,21.6,13c-2.5-1.4-10-5.9-20.3-13.4
				c70.1-24,107.3-68.7,115.5-79.4l8.5,5.4l1.3-31.9L575.5,386z M425.2,435c5.5,5.6,11.3,11.2,17.6,16.6c-6,3.8-11.9,7.3-17.6,10.5
				h0c-5.8-3.2-11.7-6.7-17.6-10.5C413.9,446.2,419.7,440.6,425.2,435z M380.1,472.8c8.2-5.7,15.8-11.5,23-17.4
				c5.5,3.2,11.3,6.3,17.4,9.3c-9.6,5.1-18.8,9.3-27.1,12.7C389,476,384.6,474.5,380.1,472.8z M425.2,485.6
				c-9-1.8-18.5-4.1-28.3-7.1c10-3.5,19.4-7.4,28.3-11.5c8.9,4.2,18.3,8,28.3,11.5C443.7,481.5,434.2,483.8,425.2,485.6z M457,477.4
				L457,477.4c-8.3-3.4-17.5-7.6-27.1-12.7c6-3,11.8-6.1,17.4-9.3c7.1,5.9,14.7,11.8,23,17.4C465.8,474.5,461.4,476,457,477.4z"/>
		</g>
	</g>
</g>
<path class="st0" d="M430.3,552.6c-6.9-2.9-6.9-3.9-6.9-4.6c0-1.6,2.2-1.9,3.5-1.9c4.1,0,6.5,1.4,7.7,2.1l5.2,3l5.7-15.1l-3.7-2.2
	c-2.5-1.4-5.1-2.4-8.1-3v-8.5h-15.3v9.4c-7.5,2.8-12.3,9.2-12.3,17.1c0,12.3,11.7,16.9,16.7,18.9c6,2.4,6,4.1,6,5
	c0,2.1-2.5,2.9-4.6,2.9c-3.1,0-6.4-1-8.9-2.6l-5.5-3.6l-5.5,15.3l3.2,2.3c2.7,1.9,6.4,3.3,10.3,4v8.7h15.4V590
	c7.9-2.9,12.9-9.6,12.9-17.8C446.1,560.4,437,555.3,430.3,552.6z"/>
</svg>
